<svg id="Layer_1" height="512" viewBox="0 0 512 512" width="512" xmlns="http://www.w3.org/2000/svg" data-name="Layer 1"><path d="m419.07 121.6c-36.669-4.6-78.323 2.891-105.885 7.854-3.29.593-6.406 1.154-9.316 1.66-5.387.937-9.969 1.745-13.9 2.44-22.532 3.979-22.533 3.981-30.7 2.515-4.108-.736-10.316-1.849-21.31-3.051-22.152-2.419-34.274 1.981-44.971 5.863-8.922 3.238-17.347 6.3-31.677 5.515-22.716-1.234-34.973 3.256-50.488 8.946a296.04 296.04 0 0 1 -31.467 10.031c-37.692 9.56-51.809 41.532-54.223 47.739l-17.223 22.188a13.843 13.843 0 0 0 3.516 20.177l9 5.717a34.459 34.459 0 0 0 30.313 3.368l3.475-1.247a24.6 24.6 0 0 1 11.431-1.157 71.2 71.2 0 0 0 32.937-3.874c5.71-.483 42.072-2.783 67.554 13.843a122.712 122.712 0 0 0 1.394 16.352c4.388 28.171-9.934 61.638-14.688 71.737-7.55.81-16.98 4.24-28 13.016a11.221 11.221 0 0 0 6.884 19.976l49.378.64h.287a21.688 21.688 0 0 0 20.49-14.548c16.134-46.157 33.812-80.532 47.289-91.953a49.182 49.182 0 0 0 5.8-5.853c1.724.48 4.012 1.158 6.686 2.035 10.577 25.264 5.389 58.781 3.262 69.678-9.09 2.179-17.125 7.88-23.491 16.884a11.233 11.233 0 0 0 9.13 17.681l49.295-2.107a6.042 6.042 0 0 0 1.356-.211 21.667 21.667 0 0 0 15.892-19.754c.173-3.258 1.207-7.047 2.4-11.434 3.087-11.329 7.178-26.377 1.818-49.248a92.288 92.288 0 0 0 9.38.485 106.4 106.4 0 0 0 39.078-7.81 82.073 82.073 0 0 0 8.169 16.6c10.395 16.2 18.283 33.763 20.807 45.746-7.918.293-18.195 3.448-30.428 13.192a11.222 11.222 0 0 0 6.884 19.976l49.38.641h.211a18.723 18.723 0 0 0 12.01-4.667 23.392 23.392 0 0 0 4.936-5.741l31.923-1.311a18.383 18.383 0 0 0 16.589-24.489 24.387 24.387 0 0 0 -3.692-6.788c-4-5.175-16.418-23.744-8.452-45.425 10.773-29.324 6.81-73.372 6.472-76.884.152-2.88.156-5.649.033-8.3 3.232 4.989 5.408 9.092 6.309 11.967a7.211 7.211 0 0 0 13.866-.322c6.026-23.313-1.909-37.7-4.866-42.016-8.827-38.342-36.027-60.636-80.857-66.272zm-111.148 227.512c-1.318 4.84-2.565 9.412-2.807 13.949a9.685 9.685 0 0 1 -6.516 8.649l-46.292 1.849c7.586-9.826 17.321-13.3 28.957-10.334 5.161 1.32 7.217-1.7 7.862-3.061a6.115 6.115 0 0 0 -2.036-7.58 5.97 5.97 0 0 0 -3.559-1.173h-.056a44.678 44.678 0 0 0 -6.185-1.03 188.772 188.772 0 0 0 2.5-21.229c.953-15.9-.259-29.988-3.582-42.086 3.583 1.56 7.336 3.345 11.117 5.39a91.643 91.643 0 0 0 20.995 8.249c6.558 22.848 2.72 36.968-.398 48.407zm169.143 7.074a12.421 12.421 0 0 1 1.878 3.457 6.381 6.381 0 0 1 -5.767 8.5l-27.813 1.142c.009-.221.023-.441.026-.663.147-11.463 2.529-52.544 27.018-99.885.167-.322.315-.637.477-.958-.833 10.847-2.6 22.159-6.034 31.513-10.088 27.456 5.269 50.49 10.215 56.894zm4.34-162.654a7.1 7.1 0 0 0 -12.273 6.723c6.678 19.4 4.194 40.587-7.383 62.967-25 48.324-28.16 89.7-28.359 105.244a12.487 12.487 0 0 1 -4.277 9.508 7.152 7.152 0 0 1 -4.315 1.876h-.055l-47.157-.611c12.413-9.312 21.27-9.882 26.41-8.822a5.727 5.727 0 0 0 .6.135 16.064 16.064 0 0 1 1.693.51 5.015 5.015 0 0 0 5.525-1.467l1.439-1.684a4.9 4.9 0 0 0 -1.874-7.715l-.106-.043c-2.065-16.508-13.44-39.076-23.231-54.338-28.6-44.574 5.793-100.2 6.144-100.755a6 6 0 0 0 -10.144-6.413 143.536 143.536 0 0 0 -15.442 37.13c-4.471 17.13-5.139 33.429-2.08 48.3-13.856 5.78-32.01 10.009-51.708 5.875a5.994 5.994 0 0 0 -1-.208 80.5 80.5 0 0 1 -20.785-7.839 172.561 172.561 0 0 0 -31.015-12.852c14.7-27.122 13.3-65.47 13.216-67.447a6 6 0 0 0 -11.991.5c.023.538 1.942 53.948-21.827 74.091-8.969 7.6-27.5 30.329-50.859 97.148a9.677 9.677 0 0 1 -9.288 6.506l-47.158-.612c9.689-7.268 17.211-9.208 22.493-9.207h.073.04a18.424 18.424 0 0 1 5.58.852 5.989 5.989 0 1 0 3.81-11.356q-.272-.092-.558-.18c6.3-14.205 18.3-46.094 13.845-74.716-5.262-33.779 7.52-67.526 7.65-67.862a6 6 0 0 0 -11.193-4.326 167.872 167.872 0 0 0 -9.332 43.987c-16.729-8.89-35.7-11.691-49.681-12.379a41.078 41.078 0 0 0 2.753-3.414 6.214 6.214 0 0 0 -.816-8.391 6 6 0 0 0 -8.758 1.149c-10.411 14.804-32.557 16.204-42.811 14.862a36.654 36.654 0 0 0 -17.032 1.763l-3.474 1.246a22.692 22.692 0 0 1 -19.832-2.2l-9-5.717a1.842 1.842 0 0 1 -.47-2.688l17.787-22.908a5.991 5.991 0 0 0 .932-1.722c.111-.321 11.49-32.217 46.2-41.022a306.014 306.014 0 0 0 32.648-10.4c15.326-5.621 25.439-9.333 45.7-8.229 16.775.914 26.765-2.712 36.424-6.218 10.387-3.769 20.2-7.33 39.574-5.213 10.584 1.156 16.313 2.183 20.5 2.934 10.265 1.841 11.192 1.675 34.906-2.511 3.919-.692 8.49-1.5 13.864-2.434 2.933-.51 6.072-1.076 9.388-1.672 26.842-4.834 67.407-12.14 102.261-7.759 40.287 5.063 63.483 24.093 70.91 58.176a5.729 5.729 0 0 0 1.248 2.557c.27.334 4.989 6.336 5.266 17.968-4.135-6.45-9.191-13.152-13.595-18.677z"/><path d="m104.831 181.894c-5.214-3.605-9.905-3.28-12.923-2.374-9.172 2.753-14.048 14.29-14.573 15.6a6 6 0 0 0 11.126 4.5c1.281-3.128 4.394-7.857 6.905-8.6.324-.1 1.087-.322 2.641.754.683.471 2.27 1.677 2.259 2.675-.025 2.082-3.739 5.793-6.373 7.527a6 6 0 1 0 6.525 10.07c1.954-1.266 11.706-8.055 11.846-17.413.051-3.433-1.197-8.427-7.433-12.739z"/></svg>