<svg id="Capa_1" enable-background="new 0 0 512 512" height="512" viewBox="0 0 512 512" width="512" xmlns="http://www.w3.org/2000/svg"><g id="XMLID_236_"><g id="XMLID_286_"><path id="XMLID_503_" d="m512 192.794c0-15.651-5.677-30.746-15.984-42.503-3.641-4.153-9.959-4.567-14.112-.927-4.153 3.641-4.568 9.959-.927 14.112 7.108 8.108 11.023 18.52 11.023 29.318 0 24.536-19.961 44.497-44.497 44.497h-120.151l85.056-74.491c4.155-3.639 4.573-9.956.935-14.111s-9.957-4.573-14.111-.935l-62.451 54.694c-.941-18.504-11.573-34.487-26.905-42.979-1.056-16.44-9.496-30.897-22.037-40.084 2.58-22.387 21.639-39.83 44.706-39.83 5.523 0 10-4.477 10-10s-4.477-10-10-10c-31.043 0-57.058 21.875-63.48 51.016-4.186-1.044-8.559-1.607-13.064-1.607s-8.878.563-13.064 1.607c-6.421-29.141-32.437-51.016-63.48-51.016-5.523 0-10 4.477-10 10s4.477 10 10 10c23.067 0 42.126 17.443 44.706 39.83-12.541 9.187-20.981 23.644-22.037 40.084-15.332 8.493-25.964 24.476-26.904 42.979l-65.066-56.984c-12.641-11.07-28.855-17.167-45.658-17.167-35.565.001-64.498 28.934-64.498 64.497s28.933 64.497 64.497 64.497h5.433c-5.42 7.673-8.618 17.023-8.618 27.111 0 25.491 20.738 46.229 46.229 46.229 12.524 0 24.68-5.182 33.353-14.218l17.594-18.331c-2.27 25.57 5.537 51.66 22.939 72.119l66.957 78.723c1.9 2.234 4.685 3.521 7.617 3.521 2.933 0 5.717-1.287 7.617-3.521l66.957-78.723c17.401-20.459 25.209-46.549 22.939-72.119l17.594 18.331c8.672 9.035 20.829 14.217 33.352 14.217 25.491 0 46.229-20.738 46.229-46.229 0-10.088-3.198-19.438-8.618-27.111h5.433c35.563.001 64.496-28.932 64.496-64.496zm-206.321 64.497c7.112 0 13.738 3.709 17.292 9.68 6.551 11.008 10.116 23.151 10.807 35.372h-155.555c.691-12.221 4.256-24.363 10.807-35.371 3.554-5.971 10.18-9.68 17.291-9.68h99.358zm-82.179-104.327c4.28-13.883 17.231-24 32.5-24s28.22 10.117 32.499 24zm3.816 20h57.368c17.735 0 32.163 14.428 32.163 32.163s-14.428 32.164-32.163 32.164h-57.368c-17.735 0-32.163-14.429-32.163-32.164 0-17.734 14.428-32.163 32.163-32.163zm-207.316 19.83c0-24.536 19.961-44.497 44.497-44.497 11.953 0 23.489 4.337 32.481 12.212l87.671 76.781h-120.152c-24.536.001-44.497-19.96-44.497-44.496zm106.464 109.77c-4.92 5.127-11.818 8.067-18.923 8.067-14.463 0-26.229-11.766-26.229-26.229 0-14.949 12.162-27.111 27.111-27.111h61.494zm129.536 124.447-33.696-39.617h67.392zm59.34-69.768-8.633 10.15h-101.414l-8.633-10.15c-8.728-10.262-14.426-22.305-16.996-34.901h152.671c-2.569 12.596-8.267 24.639-16.995 34.901zm115.349-72.841c0 14.463-11.767 26.229-26.229 26.229-7.105 0-14.003-2.94-18.923-8.066l-43.453-45.274h61.494c14.949 0 27.111 12.162 27.111 27.111z"/><path id="XMLID_1014_" d="m447.5 148.3c2.64 0 5.21-1.07 7.07-2.93 1.87-1.86 2.93-4.44 2.93-7.07s-1.06-5.21-2.93-7.07c-1.86-1.86-4.43-2.93-7.07-2.93-2.63 0-5.21 1.07-7.07 2.93s-2.93 4.44-2.93 7.07 1.07 5.21 2.93 7.07 4.44 2.93 7.07 2.93z"/></g></g></svg>