<svg id="Layer_3" enable-background="new 0 0 64 64" height="512" viewBox="0 0 64 64" width="512" xmlns="http://www.w3.org/2000/svg"><g><path d="m51.45 6.562-4.45-.742v-4.82h-2v4.486l-1-.166v-4.32h-2v4.026c-.106-.007-.21-.026-.316-.026-.324 0-.64.032-.946.092-.691-1.856-2.226-3.245-4.158-3.728l-1.338-.334c-.297-.075-.614-.008-.857.182s-.385.48-.385.788v1.324c0 2.01.999 3.876 2.672 4.992l.367.244c-.094.348-.16.707-.174 1.083l-.829 22.357h-9.036c-2.019 0-3.86.758-5.269 2h-2.731c-3.672 0-6.688 2.846-6.972 6.446l-1.643 1.097c-.867.576-1.385 1.543-1.385 2.584 0 .83.323 1.61.91 2.197.776.776 1.328 1.75 1.595 2.815l.525 2.103c.111.446.511.758.97.758s.859-.312.97-.758l.525-2.102c.267-1.066.818-2.04 1.595-2.816.587-.587.91-1.367.91-2.197 0-1.041-.518-2.008-1.384-2.584l-1.566-1.044c.256-2.519 2.365-4.499 4.95-4.499h1.091c-.689 1.188-1.09 2.567-1.09 4.045l1 22c.024.534.465.955.999.955h3c.526 0 .963-.408.998-.934l.502-7.53.502 7.53c.035.526.472.934.998.934h3c.526 0 .963-.408.998-.934l.938-14.066h3.129l.938 14.066c.034.526.471.934.997.934h3c.526 0 .963-.408.998-.934l.502-7.53.502 7.53c.035.526.472.934.998.934h3c.526 0 .963-.408.998-.934l1.002-15.066v-5l-.001-2.038-.96-24.962h3.713c2.343 0 4.248-1.905 4.248-4.248 0-2.086-1.493-3.848-3.55-4.19zm-36.45 37.565c0 .296-.115.574-.324.783-.708.708-1.274 1.538-1.676 2.447-.401-.909-.968-1.739-1.676-2.447-.209-.209-.324-.487-.324-.783 0-.37.185-.714.493-.92l1.507-1.005 1.508 1.005c.307.206.492.55.492.92zm22.781-37.475c-1.115-.744-1.781-1.988-1.781-3.328v-.044l.095.023c1.322.331 2.371 1.297 2.812 2.585-.355.25-.667.551-.942.886zm.81 10.408c1.372.275 2.409 1.488 2.409 2.94 0 1.527-1.151 2.777-2.628 2.962zm-6.775 16.94c-.414 1.161-1.514 2-2.816 2-1.28 0-2.367-.81-2.797-1.941.261-.035.526-.059.797-.059zm-10.816 6c0-.271.024-.536.059-.797 1.131.43 1.941 1.517 1.941 2.797 0 1.221-.735 2.27-1.785 2.737zm.955 21-.091-2h1.334l-.133 2zm5.981 0-.133-2h1.396l-.133 2zm1.395-4h-1.662l-.6-9h2.862zm-.147-11c.414-1.161 1.514-2 2.816-2s2.402.839 2.816 2zm8.752 15-.133-2h1.396l-.133 2zm6 0-.133-2h1.396l-.133 2zm1.395-4h-1.662l-.607-9.1c1.118-.201 2.127-.712 2.939-1.442v.476zm.399-24.027c-1.526-.14-2.73-1.411-2.73-2.973 0-1.484 1.085-2.711 2.502-2.95zm5.022-19.973h-4.752c-.271 0-.532.11-.721.307s-.289.46-.278.731l.424 11.02c-2.484.289-4.425 2.382-4.425 4.942 0 2.691 2.141 4.876 4.807 4.98l.193 5.02v2c0 2.206-1.794 4-4 4h-1c-.526 0-.963.408-.998.934l-.671 10.066h-1.662l-.671-10.066c-.001-.01-.007-.019-.008-.029-.052-2.712-2.266-4.905-4.99-4.905-2.414 0-4.434 1.721-4.899 4h-2.101c-.526 0-.963.408-.998.934l-.671 10.066h-1.558l-.464-10.196c2.12-.58 3.691-2.503 3.691-4.804 0-2.176-1.407-4.013-3.352-4.698.579-1.143 1.51-2.074 2.653-2.653.686 1.944 2.523 3.351 4.699 3.351 2.414 0 4.434-1.721 4.899-4h3.101c.538 0 .979-.426.999-.963l.299-8.067c2.616-.158 4.702-2.315 4.702-4.97 0-2.529-1.895-4.604-4.336-4.933l.198-5.349c.057-1.525 1.296-2.718 2.822-2.718.156 0 .312.013.465.038l8.974 1.496c1.087.182 1.877 1.114 1.877 2.218 0 1.239-1.009 2.248-2.248 2.248z"/><path d="m42.5 8c-.827 0-1.5.673-1.5 1.5s.673 1.5 1.5 1.5 1.5-.673 1.5-1.5-.673-1.5-1.5-1.5z"/><path d="m37 40c0 1.654 1.346 3 3 3s3-1.346 3-3-1.346-3-3-3-3 1.346-3 3zm4 0c0 .552-.448 1-1 1s-1-.448-1-1 .448-1 1-1 1 .448 1 1z"/></g></svg>