<svg id="_x33_0" enable-background="new 0 0 64 64" height="512" viewBox="0 0 64 64" width="512" xmlns="http://www.w3.org/2000/svg"><g><circle cx="12" cy="14" r="1"/><path d="m60.682 45.795c1.513-3.383 2.318-7.092 2.318-10.795 0-6.617-5.383-12-12-12-2.148 0-4.279.71-6.001 2l-.828.622c-1.125-.409-2.33-.625-3.575-.625-.012 0-.024 0-.037 0-1.548.004-3.093.182-4.609.508-.253-2.522-2.363-4.505-4.95-4.505-.457 0-.886.111-1.275.295-1.116-1.533-1.725-3.382-1.725-5.295v-4c0-4.587-3.38-8.355-7.836-8.923l-.003-.019c-.167-1.173-1.186-2.058-2.371-2.058-.837 0-1.624.446-2.054 1.163l-.502.837h-6.234c-2.206 0-4 1.794-4 4 0 1.685 1.049 3.122 2.526 3.711l-2.59 5.179c-.467.933-1.171 1.731-2.038 2.31l-.428.285c-.92.613-1.47 1.64-1.47 2.747 0 .712.235 1.416.661 1.981l1.555 2.074c.805 1.073 2.085 1.713 3.425 1.713 1.144 0 2.219-.445 3.027-1.254l.776-.776c.442-.442.932-.825 1.445-1.175.823 1.534 1.382 3.179 1.63 4.916l.822 5.756c.122.857.338 1.688.605 2.498l-5.669 7.086c-.807 1.009-1.318 2.221-1.479 3.505l-.681 5.444h-.117c-1.103 0-2 .897-2 2v2c0 1.103.897 2 2 2h6c1.103 0 2-.897 2-2v-2c0-.675-.339-1.271-.853-1.634l.609-3.046c.097-.484.367-.912.761-1.208l5.089-3.817c.26 1.752.394 3.527.394 5.321v6.384c-1.103 0-2 .897-2 2v2c0 1.103.897 2 2 2h6c1.103 0 2-.897 2-2v-2c0-.831-.511-1.545-1.234-1.846l.443-.665c.518-.776.791-1.679.791-2.613 0-.729-.172-1.457-.497-2.107l-.604-1.208c-.511-1.021-.56-2.214-.136-3.274l.135-.338c.299.018.596.051.895.051 1.573 0 3.127-.252 4.617-.75l2.274-.758c.707.763 1.523 1.434 2.459 1.954l1.378.765c1.529.85 2.479 2.464 2.479 4.213 0 .316-.031.634-.094.945l-.726 3.631h-.18c-1.103 0-2 .897-2 2v2c0 1.103.897 2 2 2h6c1.103 0 2-.897 2-2v-2.586l.843-.843c.746-.746 1.157-1.738 1.157-2.794 0-.646-.121-1.275-.36-1.87l-1.238-3.096c-.267-.665-.402-1.367-.402-2.084 0-.409.045-.819.134-1.219l1.28-5.758c.347-1.562.532-3.162.57-4.763 1.245.927 2.016 2.408 2.016 4.039 0 .539-.086 1.071-.256 1.581l-1.385 4.152c-.238.716-.359 1.461-.359 2.241 0 3.859 3.141 7 7 7 2.757 0 5-2.243 5-5 0-1.768-.928-3.316-2.318-4.205zm-34.682-33.795v4c0 2.442.816 4.796 2.299 6.717-.186.391-.299.822-.299 1.283 0 1.654 1.346 3 3 3h1v-2h-1c-.552 0-1-.448-1-1s.448-1 1-1c1.654 0 3 1.346 3 3s-1.346 3-3 3c-2.757 0-5-2.243-5-5v-1h-2v1c0 .697.106 1.369.296 2.005-1.387-.654-2.296-2.045-2.296-3.609v-10.982c0-1.062-.372-2.064-1.054-2.863l-.485-3.394c3.187.669 5.539 3.469 5.539 6.843zm-17-7h5.034l-.376.627c-.43.716-.658 1.537-.658 2.374 0 .551-.451.999-1.056.999-.253 0-.491-.099-.67-.277s-.276-.417-.276-.669l.002-1.052-2-.004-.002 1.053c0 .329.065.646.168.949h-.166c-1.103 0-2-.897-2-2s.897-2 2-2zm-2 52v-2h6l.002 2zm7.317-9.488c-.788.591-1.329 1.449-1.522 2.416l-.615 3.072h-3.047l.65-5.195c.115-.917.48-1.782 1.058-2.503l4.981-6.226c.897 1.742 2.136 3.298 3.661 4.563zm6.683 13.488v-2h6l.002 2zm26 0h-6v-2h6zm1.461-20.684-1.28 5.759c-.12.541-.181 1.097-.181 1.652 0 .974.183 1.925.544 2.827l1.239 3.098c.144.358.217.737.217 1.125 0 .521-.203 1.012-.571 1.38l-.843.843h-4.366l.648-3.238c.087-.441.132-.891.132-1.338 0-2.476-1.344-4.759-3.508-5.961l-1.377-.765c-2.538-1.411-4.115-4.091-4.115-6.994v-1.704h-2v1.704c0 1.829.503 3.586 1.406 5.106l-1.629.543c-1.363.454-2.805.661-4.234.635.295-1.137.457-2.304.457-3.492v-2.496h-2v2.496c0 1.534-.289 3.033-.858 4.457l-.236.591c-.636 1.59-.562 3.38.204 4.911l.604 1.208c.187.374.286.794.286 1.213 0 .537-.157 1.058-.455 1.504l-1.08 1.62h-2.465v-6.384c0-5.19-1.036-10.241-3.081-15.01l-1.838.787c.665 1.552 1.209 3.138 1.648 4.747-1.821-1.889-3.029-4.314-3.407-6.957l-.822-5.755c-.284-1.988-.926-3.869-1.874-5.622l1.61-.806c1.705-.854 2.764-2.566 2.764-4.472v-.528h-2v.528c0 1.143-.636 2.171-1.658 2.683l-2.192 1.097c-1.155.577-2.205 1.334-3.119 2.248l-.776.776c-.93.93-2.649.808-3.438-.244l-1.557-2.075c-.167-.223-.26-.5-.26-.781 0-.437.217-.842.58-1.084l.428-.285c1.156-.771 2.096-1.835 2.718-3.079l2.892-5.784h2.382v-.001c1.654-.003 3-1.347 3-2.999 0-.474.129-.938.372-1.343l2.08-3.466c.17-.285.683-.183.729.148l.877 6.132.235.235c.456.457.707 1.064.707 1.708v10.982c0 2.587 1.648 4.874 4.103 5.691l1.677.559c1.283 1.441 3.145 2.354 5.22 2.354 2.194 0 4.041-1.429 4.713-3.398l.012-.003c1.583-.396 3.211-.598 4.924-.604h.026c1.907 0 3.764.672 5.301 1.953 1.921 1.602 3.024 3.955 3.024 6.457 0 1.65-.182 3.302-.539 4.911zm9.539 12.684c-2.757 0-5-2.243-5-5.026 0-.539.086-1.071.256-1.581l1.385-4.152c.238-.716.359-1.461.359-2.241 0-2.787-1.659-5.267-4.169-6.381-.143-.818-.379-1.612-.711-2.369 3.977.946 6.88 4.487 6.88 8.75v1h2v-1c0-5.825-4.435-10.538-10.181-10.958-.474-.611-1.02-1.178-1.634-1.691-.322-.268-.663-.507-1.013-.731l.028-.021c1.376-1.031 3.081-1.599 4.8-1.599 5.514 0 10 4.486 10 10 0 3.462-.761 6.927-2.189 10.082-.266-.044-.533-.082-.811-.082-1.654 0-3 1.346-3 3s1.346 3 3 3h1v-2h-1c-.552 0-1-.448-1-1s.448-1 1-1c1.654 0 3 1.346 3 3s-1.346 3-3 3z"/></g></svg>