<?xml version="1.0" encoding="iso-8859-1"?>
<!-- Generator: Adobe Illustrator 19.0.0, SVG Export Plug-In . SVG Version: 6.00 Build 0)  -->
<svg version="1.1" id="Layer_1" xmlns="http://www.w3.org/2000/svg" xmlns:xlink="http://www.w3.org/1999/xlink" x="0px" y="0px"
	 viewBox="0 0 511.999 511.999" style="enable-background:new 0 0 511.999 511.999;" xml:space="preserve">
<g>
	<g>
		<path d="M161.007,71.201c-7.713-7.519-18.485-9.125-30.333-4.525c-7.699,2.989-13.388,7.583-14.011,8.098
			c-3.575,2.949-4.109,8.228-1.197,11.831l22.857,28.282c1.437,1.779,3.535,2.9,5.813,3.105c0.254,0.024,0.507,0.034,0.759,0.034
			c2.017,0,3.976-0.722,5.517-2.048c1.695-1.461,16.57-14.686,17.014-29.129C167.61,80.883,165.389,75.472,161.007,71.201z
			 M145.407,96.763l-10.806-13.369c4.729-2.274,10.739-3.86,14.607-0.09c1.138,1.11,1.352,2.008,1.324,3.015
			C150.448,89.292,148.182,93.225,145.407,96.763z"/>
	</g>
</g>
<g>
	<g>
		<path d="M70.612,108.287c-5.397,0-9.789,4.384-9.789,9.773c0.001,5.387,4.392,9.771,9.789,9.771c5.398,0,9.788-4.384,9.788-9.771
			C80.4,112.672,76.009,108.287,70.612,108.287z"/>
	</g>
</g>
<g>
	<g>
		<path d="M491.659,334.965c-1.286-3.931-2.75-7.866-4.29-11.953c-4.695-12.468-9.551-25.358-10.653-42.427
			c-2.47-38.282-20.863-70.165-53.191-92.206c-22.4-15.271-44.032-20.777-47.748-21.645c-22.952-7.768-41.652-5.433-61.277-2.974
			c-23.349,2.927-47.468,5.945-84.901-6.026c-3.964-16.653-11.255-31.329-21.67-43.539c2.473-0.001,4.821-1.086,6.426-2.969
			c1.606-1.884,2.305-4.376,1.913-6.82c-0.096-0.603-2.481-14.941-12.371-30.311c-9.198-14.297-26.854-32.342-58.738-37.124
			c-35.585-5.339-65.538,0.694-84.34,16.985c-13.421,11.627-20.812,28.15-21.509,47.947c-8.731,8.668-18.453,18.704-26.323,27.816
			c-0.143,0.154-0.282,0.314-0.415,0.481c-4.62,5.374-8.577,10.409-11.252,14.614c-1.621,2.55-1.76,5.77-0.361,8.449
			c0.326,0.625,4.523,8.565,11.295,17.55c0.101,0.144,0.206,0.285,0.318,0.423c6.256,8.231,14.641,17.253,24.188,22.301
			c0.003,0.001,0.007,0.002,0.01,0.004c0.287,0.151,0.586,0.286,0.895,0.405c0.081,0.032,0.164,0.054,0.246,0.083
			c0.166,0.059,0.329,0.121,0.5,0.169l19.562,5.532c-1.291,3.843-2.72,8.766-3.929,14.565c-0.953,4.569,1.977,9.046,6.547,9.999
			c0.583,0.122,1.163,0.18,1.735,0.18c3.918-0.001,7.432-2.74,8.264-6.727c2.554-12.242,6.196-19.833,6.222-19.888
			c1.107-2.25,1.157-4.877,0.136-7.167c-1.021-2.291-3.006-4.011-5.42-4.693l-14.518-4.106c8.452-7.309,22.235-17.342,40.828-24.681
			c11.135-4.396,18.168-13.106,19.803-24.525c2.337-16.326-6.799-36.59-21.724-48.181c-10.299-7.999-21.422-10.147-31.319-6.054
			c-0.917,0.38-1.76,0.917-2.491,1.59c-0.139,0.127-0.524,0.482-1.082,1.001c2.594-5.505,6.216-10.289,10.861-14.311
			c15.011-13.006,40.144-17.637,70.767-13.045c35.02,5.253,48.959,29.659,54.137,43.608h-10.206c-3.642,0-6.873,2.332-8.02,5.789
			c-1.147,3.456,0.048,7.259,2.968,9.436c20.52,15.304,32.052,37.564,34.277,66.164c0.701,9.022,0.324,17.316-0.368,23.976
			c-5.353-4.08-10.222-6.587-11.16-7.056c-3.104-1.554-6.841-1.049-9.423,1.269c-2.583,2.318-3.486,5.98-2.277,9.232
			c2.192,5.9,1.997,13.636-0.579,22.992c-1.239,4.499,1.405,9.152,5.904,10.391c0.75,0.206,1.505,0.305,2.248,0.305
			c3.708,0,7.111-2.461,8.143-6.211c1.205-4.374,2.003-8.562,2.398-12.549c1.125,1.232,2.094,2.51,2.799,3.804
			c1.651,3.025,4.97,4.74,8.393,4.347c3.422-0.397,6.261-2.833,7.174-6.154c0.224-0.815,5.469-20.247,3.643-45.074
			c-0.042-0.57-0.105-1.13-0.154-1.696c36.54,10.219,61.643,7.081,84.053,4.273c19.039-2.388,34.662-4.339,54.015,2.293
			c0.108,0.038,0.215,0.079,0.326,0.113c3.175,1.102,6.447,2.426,9.857,4.026c51.008,23.943,40.298,94.814,35.8,115.964
			c-1.292,6.078-1.846,11.946-1.692,17.94c0.118,4.592,3.877,8.233,8.444,8.233c0.073,0,0.148-0.001,0.221-0.003
			c4.666-0.121,8.351-3.999,8.231-8.665c-0.119-4.649,0.314-9.226,1.327-13.989c2.797-13.154,6.855-39.217,2.61-65.984
			c-1.555-9.805-4.131-18.799-7.663-26.928c19.335,17.964,30.009,40.811,31.773,68.141c1.263,19.583,6.809,34.306,11.702,47.298
			c1.21,3.211,2.366,6.312,3.403,9.331c-6.874,4.287-11.474,11.897-11.474,20.578c0,5.74,2.684,17.974,6.243,28.461
			c5.852,17.242,12.128,24.931,20.345,24.931c11.048,0,15.561-13.785,18.259-25.796c2.297-10.23,3.671-22.065,3.671-27.596
			C511.999,346.839,503.173,336.848,491.659,334.965z M72.274,93.664c5.105-1.323,10.433,1.983,13.275,4.19
			c9.927,7.709,16.817,22.261,15.36,32.436c-0.77,5.376-3.804,9.038-9.278,11.198c-26.431,10.434-44.068,25.546-52.238,33.633
			c-3.353-2.624-6.58-5.907-9.534-9.361c4.016-6.294,5.672-12.673,4.913-19.032c-0.554-4.646-2.327-8.423-4.279-11.322
			C46.068,118.238,66.942,98.626,72.274,93.664z M489.431,391.289c-4.278-8.899-9.049-26.583-9.049-32.411
			c0-4.056,3.3-7.358,7.358-7.358s7.358,3.301,7.358,7.358C495.097,368.935,492.083,383.484,489.431,391.289z"/>
	</g>
</g>
<g>
	<g>
		<path d="M444.484,387.299c-2.197-16.25-5.292-28.92-7.779-39.099l-0.088-0.358c-1.107-4.534-5.679-7.307-10.214-6.205
			c-4.534,1.108-7.312,5.681-6.204,10.214l0.088,0.359c2.517,10.305,5.37,21.984,7.447,37.356
			c4.215,31.194-18.524,61.482-25.982,70.455h-41.057c4.414-7.128,13.776-12.322,25.056-17.974
			c9.061-4.539,16.886-8.46,20.147-14.98c4.365-8.73,10.962-32.431-21.962-63.859c-22.643-21.614-32.861-60.251-32.96-60.633
			c-0.817-3.17-3.389-5.581-6.604-6.193c-3.216-0.612-6.495,0.687-8.417,3.336c-0.197,0.272-0.414,0.541-0.635,0.809
			c-3.306,3.923-12.16,10.603-35.821,17.785c-0.108,0.033-0.215,0.065-0.325,0.098c-0.352,0.106-0.718,0.213-1.075,0.319
			c-23.576,6.941-54.16,12.336-82.128,15.894c-0.047-0.001-0.094-0.007-0.142-0.007c-0.768,0-1.509,0.112-2.216,0.304
			c-8.976,1.116-17.646,2.038-25.696,2.758l2.471-17.792c0.642-4.623-2.585-8.891-7.208-9.532c-4.624-0.647-8.891,2.585-9.533,7.208
			L153.86,460.023h-45.576c7.258-12.112,23.092-16.345,23.262-16.389c3.801-0.951,6.448-4.388,6.4-8.303l-1.327-106.934
			c4.747-6.48,16.455-23.511,21.204-39.88c0.468,0.829,0.776,1.726,0.852,2.686c0.267,3.433,2.59,6.36,5.873,7.398
			c3.281,1.04,6.867-0.015,9.062-2.666c0.587-0.709,14.488-17.592,25.162-38.555c2.117-4.159,0.463-9.247-3.696-11.366
			c-4.158-2.116-9.247-0.463-11.366,3.696c-4.941,9.704-10.747,18.597-15.305,25.048c-4.532-4.712-10.283-7.721-14.388-9.098
			c-2.713-0.91-5.701-0.386-7.944,1.393c-2.241,1.779-3.43,4.571-3.158,7.42c0.959,10.059-8.965,28.173-17.421,40.419
			C96.506,298.734,87.19,267.08,87.1,266.762c-0.85-3.043-3.325-5.359-6.419-6.002c-3.092-0.641-6.287,0.494-8.28,2.944
			l-1.826,2.248c-1.673-7.904-2.512-15.969-2.498-24.112c0.007-4.668-3.77-8.456-8.437-8.464c-0.005,0-0.009,0-0.013,0
			c-4.66,0-8.443,3.776-8.451,8.437c-0.024,15.358,2.59,30.469,7.769,44.917c1.03,2.871,3.526,4.965,6.533,5.478
			c3.005,0.509,6.058-0.634,7.981-3.002l3.031-3.732c6.61,13.482,19.749,33.415,43.258,45.513l1.223,98.444
			c-3.17,1.276-7.175,3.162-11.266,5.807c-12.365,8-19.806,19.111-21.518,32.131c-0.318,2.412,0.42,4.845,2.025,6.674
			c1.605,1.83,3.92,2.879,6.354,2.879h64.652h35.231c3.946,0,7.367-2.73,8.241-6.578l19.376-85.268
			c0.14-0.615,0.211-1.242,0.211-1.873v-32.715c9.326-1.245,19.492-2.753,29.839-4.552c10-1.739,19.218-3.57,27.678-5.498
			c-2.295,14.665-2.66,37.162,12.742,49.917c9.329,7.724,14.681,13.093,17.621,16.377l-17.463,23.002
			c-9.508,3.605-40.006,16.497-47.024,35.852c-0.94,2.592-0.557,5.476,1.025,7.732c1.582,2.256,4.165,3.599,6.92,3.599h55.375
			c2.548,0,4.959-1.15,6.565-3.128l50.841-62.701c0.464-0.574,0.852-1.203,1.153-1.878l11.082-24.827
			c10.9,13.254,14.706,25.906,10.186,35.049c-1.277,1.807-8.107,5.231-12.636,7.499c-14.4,7.215-36.163,18.117-37.087,41.199
			c-0.092,2.299,0.757,4.534,2.35,6.193s3.794,2.596,6.094,2.596h56.067c2.332,0,4.561-0.963,6.158-2.663
			c0.398-0.424,9.836-10.539,18.568-26.065C442.136,427.2,447.029,406.144,444.484,387.299z M189.704,460.023h-18.78l14.609-105.193
			c4.699-0.419,12.361-1.154,21.843-2.241v29.669h0L189.704,460.023z M354.565,401.312l-47.604,58.709h-33.492
			c2.989-2.263,6.57-4.55,10.676-6.803c9.523-5.229,18.478-8.384,18.563-8.415c1.571-0.546,2.944-1.546,3.949-2.87l22.863-30.116
			c1.946-2.563,2.267-6.01,0.828-8.889c-0.972-1.945-5.65-9.535-25.031-25.586c-10.747-8.9-8.233-30.094-5.429-41.499
			c10.621-3.024,19.641-6.26,27.097-9.722c0.006-0.003,0.012-0.006,0.018-0.009c0.655-0.304,1.298-0.611,1.928-0.917
			c0.265-0.128,0.523-0.258,0.783-0.388c0.361-0.179,0.719-0.359,1.072-0.54c0.368-0.189,0.731-0.379,1.091-0.568
			c0.224-0.118,0.446-0.238,0.667-0.356c0.43-0.232,0.856-0.465,1.273-0.699c0.118-0.066,0.236-0.133,0.353-0.201
			c1.605-0.909,3.122-1.832,4.531-2.772c0.051,0.14,0.109,0.294,0.161,0.435c0.27,0.746,0.549,1.505,0.846,2.295
			c0.133,0.354,0.281,0.728,0.419,1.09c0.233,0.61,0.466,1.217,0.716,1.848c0.167,0.421,0.346,0.859,0.519,1.289
			c0.241,0.601,0.482,1.199,0.738,1.815c0.19,0.461,0.392,0.931,0.59,1.401c0.259,0.612,0.519,1.223,0.791,1.848
			c0.213,0.488,0.433,0.981,0.654,1.477c0.278,0.625,0.561,1.252,0.853,1.888c0.234,0.51,0.473,1.022,0.716,1.538
			c0.301,0.64,0.607,1.283,0.922,1.931c0.252,0.522,0.507,1.042,0.768,1.568c0.327,0.659,0.663,1.321,1.004,1.985
			c0.269,0.525,0.537,1.049,0.815,1.576c0.357,0.682,0.728,1.365,1.1,2.048c0.281,0.517,0.559,1.032,0.847,1.552
			c0.398,0.713,0.81,1.427,1.224,2.141c0.285,0.494,0.563,0.985,0.856,1.478c0.464,0.782,0.948,1.562,1.43,2.343
			c0.261,0.424,0.514,0.847,0.782,1.27c0.711,1.123,1.443,2.242,2.195,3.356c0.052,0.077,0.099,0.154,0.151,0.231
			c0.802,1.183,1.63,2.357,2.479,3.521c0.279,0.383,0.573,0.757,0.857,1.137c0.581,0.779,1.164,1.556,1.767,2.322
			c0.354,0.448,0.721,0.887,1.082,1.331c0.555,0.684,1.111,1.367,1.685,2.037c0.398,0.465,0.808,0.921,1.214,1.379
			c0.389,0.438,0.766,0.888,1.163,1.321L354.565,401.312z"/>
	</g>
</g>
<g>
</g>
<g>
</g>
<g>
</g>
<g>
</g>
<g>
</g>
<g>
</g>
<g>
</g>
<g>
</g>
<g>
</g>
<g>
</g>
<g>
</g>
<g>
</g>
<g>
</g>
<g>
</g>
<g>
</g>
</svg>
