<?xml version="1.0"?>
<svg xmlns="http://www.w3.org/2000/svg" id="Outline" viewBox="0 0 512 512" width="512" height="512"><path d="M60.408,214.3C57.46,226.563,56,240.369,56,256c0,53.54,30.565,81.237,56.207,95.044a154.9,154.9,0,0,0,43.046,15.14l-26.2,45.847c-14.46,25.3-18.681,45.425-12.546,59.8a27.45,27.45,0,0,0,17.552,15.928A7.977,7.977,0,0,0,136,488H272a8,8,0,0,0,8-8V464a24.027,24.027,0,0,0-24-24H201.815l37.776-42.5a39.823,39.823,0,0,0,5.874-44.461l-22.42-44.84c30.4,5.954,58.358,1.575,72.955-1.773V360a8,8,0,0,0,2.151,5.458L405.408,480.375A24.058,24.058,0,0,0,422.95,488H488a8,8,0,0,0,8-8V468.07a24.126,24.126,0,0,0-17.4-23.082l-42.211-12.055L360,348.907v-50.1l26.773-33.467c13.094,3.791,45.971,10.1,74.027-10.939,10.7-8.027,16.534-17.785,17.331-29,1.132-15.924-8.654-29.885-13.663-35.914a200.528,200.528,0,0,0,2.211-31.341c-.5-31-10.386-52.879-29.395-65.017-37.395-23.879-96.287.029-103.815,3.252A40.647,40.647,0,0,0,328,96a39.737,39.737,0,0,0-28.284,11.716,40.174,40.174,0,0,0-6.666,8.815L286.108,120c-87.5.127-142.165,9.1-177.077,29.053a106.908,106.908,0,0,0-21.5,15.952L64.088,125.932A24.035,24.035,0,0,1,88,104H232.32a72.076,72.076,0,0,0,46.868-17.337l24.894-21.345a24,24,0,0,0,1.355-35.2l-1.45-1.449a23.882,23.882,0,0,0-32.329-1.468L252.68,43.023A56.116,56.116,0,0,1,216.83,56H88a72.081,72.081,0,0,0-72,72v8a8,8,0,0,0,1.09,4.031ZM450.326,197.64c.129.131,12.842,13.164,11.841,26.682-.478,6.45-4.065,12.1-10.967,17.278-23.662,17.747-53.137,10.5-61.752,7.812-3.728-6.835-6.873-15.515-3.95-22.217,3.781-8.668,15.987-11.333,16.071-11.35a7.977,7.977,0,0,0,4.128-13.461c-.07-.072-7-7.329-6.284-16.472.525-6.679,5.028-13.243,13.387-19.512,11.393-8.544,24.116-9.606,37.866-3.233a201.409,201.409,0,0,1-2.568,27.588A8.043,8.043,0,0,0,450.326,197.64Zm-139.3-78.611a24,24,0,0,1,33.94,0h0a24.049,24.049,0,0,1,4.7,6.638,23.995,23.995,0,0,0-32.006,32.007,24.011,24.011,0,0,1-6.638-38.645Zm36.283,28.284a8,8,0,1,1-8-8A8.008,8.008,0,0,1,347.313,147.313ZM116.969,162.946C149.581,144.311,202.329,136,288,136a40,40,0,1,0,68.284-28.284c-.646-.647-1.317-1.259-2-1.855,19.239-6.019,52.663-13.146,74.413.764,11.664,7.461,18.727,20.58,21.1,39.066-16.473-5.2-32.654-2.545-46.594,7.909-12.288,9.216-18.935,19.749-19.757,31.305a36.306,36.306,0,0,0,4.184,19.169c-6.017,3.037-13.018,8.186-16.733,16.585-4.366,9.868-3.171,21.465,3.513,34.525L345.753,291A8,8,0,0,0,344,296v56a8,8,0,0,0,2.08,5.381l80,88a7.985,7.985,0,0,0,3.722,2.311l44.389,12.678a8.051,8.051,0,0,1,5.808,7.7V472H422.95a8.007,8.007,0,0,1-5.842-2.539L312,356.847V296a8,8,0,0,0-10.521-7.592c-.457.15-46.18,14.926-90.949,0a8,8,0,0,0-9.685,11.167L231.153,360.2a23.9,23.9,0,0,1-3.522,26.679l-49.61,55.81A8,8,0,0,0,184,456h72a8.009,8.009,0,0,1,8,8v8H137.372a12.244,12.244,0,0,1-6.275-6.756c-2.158-5.39-3.487-18.437,11.849-45.275l32-56a8,8,0,0,0-6.333-11.946,138.265,138.265,0,0,1-48.82-15.067C88.08,319.88,72,292.643,72,256,72,209.417,85.869,180.717,116.969,162.946ZM32,128A56.063,56.063,0,0,1,88,72H216.83a72.145,72.145,0,0,0,46.092-16.685L281.9,39.5a7.955,7.955,0,0,1,10.773.491l1.449,1.449a8,8,0,0,1-.45,11.73l-24.9,21.348A56.065,56.065,0,0,1,232.32,88H88a40.045,40.045,0,0,0-40,40,8.009,8.009,0,0,0,1.14,4.116l27.405,45.677a95.223,95.223,0,0,0-8.39,14.261c-.332.7-.646,1.408-.964,2.116L32,133.837Z"/><circle cx="424" cy="192" r="8"/></svg>
