<svg id="Capa_1" enable-background="new 0 0 511.998 511.998" height="512" viewBox="0 0 511.998 511.998" width="512" xmlns="http://www.w3.org/2000/svg"><g><path d="m503.866 169.133c-9.995-8.883-25.354-7.978-34.24 2.019-15.431 17.364-16.193 41.287-16.866 62.395-1.148 35.947-3.371 55.146-38.229 64.602-14.634 3.97-29.357 2.763-44.007-3.557 36.467-17.953 60.054-56.195 56.84-99.239 2.669-16.81.456-33.365-2.108-48.971-.672-4.087-4.533-6.857-8.616-6.185-4.088.672-6.856 4.53-6.185 8.617 2.661 16.195 4.819 32.305 1.346 48.261-7.997 36.767-49.615 61.088-86.228 61.616-15.62-15.13-21.924-15.3-22.429-24.845 20.113 7.281 39.583 3.569 58.564-6.67 35.343-19.066 33.363-42.612 27.206-79.452-2.923-17.49-5.945-35.575-1.882-52.924 4.775-20.394 18.46-35.888 41.836-47.368 5.226-2.569 11.535-.415 14.102 4.813 2.562 5.214.402 11.541-4.813 14.102-22.667 11.133-31.942 24.526-32.013 46.228-.014 4.142 3.334 7.511 7.476 7.524h.025c4.13 0 7.485-3.342 7.499-7.476.044-13.455 3.924-23.137 23.625-32.813 12.639-6.207 17.872-21.539 11.665-34.178-6.223-12.672-21.512-17.887-34.179-11.665-27.664 13.586-43.963 32.366-49.828 57.412-4.749 20.276-1.475 39.869 1.692 58.817 6.168 36.907 6.014 49.996-19.532 63.778-15.771 8.507-31.732 11.699-48.197 5.039.984-1.556 2.453-2.769 4.137-3.385 22.867-8.368 28.814-37.252 12.628-54.353-1.71-1.807-2.22-4.402-1.33-6.771 6.62-17.616 8.077-37.069 4.6-55.481-.77-4.071-4.689-6.744-8.763-5.978-4.069.769-6.746 4.692-5.978 8.762 2.95 15.605 1.784 32.292-3.9 47.422-2.925 7.783-1.209 16.35 4.477 22.357 8.928 9.432 5.621 25.378-6.89 29.957-13.494 4.942-18.718 21.437-17.017 35.454.998 8.261 5.869 15.331 12.719 20.416 24.854 18.443 45.741 45.559 47.677 76.045.502 12.122-2.642 20.882-3.478 23.669-15.779 49.074 9.075 84.49 51.852 96.383 2.855.794 4.882 3.223 4.926 5.907.068 4.024-3.672 7.002-7.549 6.06-32.373-7.828-85.059-28.976-74.188-82.651 12.065-59.566-19.459-103.905-64.304-103.905-43.36 0-76.768 42.369-64.303 103.904 10.871 53.677-41.815 74.824-74.188 82.652-3.872.942-7.615-2.029-7.549-6.06.045-2.684 2.07-5.113 4.927-5.907 10.47-2.911 36.229-12.312 49.247-36.667 10.233-19.144 8.952-39.813 2.363-60.497-12.297-37.382 13.297-75.821 44.44-98.934 14.781-10.973 16.34-28.59 8.555-44.295-2.682-5.41-7.247-9.521-12.855-11.575-12.484-4.569-15.832-20.506-6.889-29.957 5.686-6.007 7.401-14.574 4.477-22.357-17.869-47.559 9.816-102.88 51.775-102.88 16.86 0 32.812 9.378 43.763 25.729 2.304 3.441 6.961 4.363 10.405 2.058 3.441-2.305 4.362-6.963 2.058-10.405-13.782-20.579-34.276-32.382-56.226-32.382-52.599 0-87.375 65.788-65.816 123.155.89 2.37.381 4.964-1.33 6.771-16.186 17.103-10.238 45.984 12.627 54.353 1.684.617 3.154 1.829 4.138 3.385-16.505 6.675-32.471 3.443-48.198-5.039-25.545-13.781-25.699-26.871-19.532-63.778 3.168-18.947 6.443-38.539 1.692-58.817-5.865-25.046-22.164-43.825-49.827-57.412-12.673-6.223-27.96-1.006-34.182 11.664-6.206 12.639-.974 27.971 11.665 34.178 26.938 13.23 26.245 26.254 20.276 61.968-2.885 17.257-5.842 35.056-2.872 53.591-.192 2.57-.305 5.139-.305 7.649 0 22.383 7.116 43.627 20.58 61.436 9.64 12.752 22.292 23.113 36.564 30.139-14.651 6.321-29.375 7.528-44.006 3.558-34.857-9.455-37.08-28.654-38.229-64.602-.674-21.107-1.438-45.032-16.867-62.395-8.904-10.019-24.218-10.924-34.24-2.019-10.02 8.907-10.921 24.219-2.018 34.24 3.732 4.199 4.14 17.314 4.534 29.998.615 19.803 1.407 45.061 13.157 67.168 5.111 20.909 17.125 39.847 33.978 53.446 27.127 21.887 64.19 27.895 96.833 15.566 8.454 36.631-11.907 60.649-43.758 69.505-9.21 2.562-15.751 10.83-15.905 20.109-.228 13.836 12.638 24.133 26.072 20.889 54.453-13.168 96.432-45.565 85.364-100.21-1.639-8.09-2.396-15.827-2.318-23.207 12.064-21.051 31.357-33.565 51.92-33.565s39.856 12.514 51.92 33.565c.078 7.38-.679 15.117-2.318 23.207-11.074 54.672 30.95 87.05 85.363 100.209 13.418 3.248 26.302-7.045 26.072-20.889-.153-9.279-6.694-17.549-15.905-20.109-31.77-8.834-52.243-32.741-43.758-69.506 55.122 20.819 116.721-11.362 130.811-69.012 11.75-22.107 12.542-47.364 13.157-67.167.394-12.684.802-25.799 4.534-29.999 8.886-9.994 7.98-25.354-2.016-34.238zm-404.288 24.643c-8.774-50.453 33.346-98.425-25.72-127.432-5.215-2.561-7.374-8.887-4.812-14.102 2.555-5.205 8.848-7.393 14.102-4.813 23.375 11.48 37.06 26.975 41.835 47.369 11.597 49.496-33.14 100.835 25.324 132.375 18.868 10.179 38.321 13.98 58.564 6.671-.516 9.602-6.837 9.743-22.431 24.848-30.707-.445-79.302-21.445-86.862-64.916zm-40.447 141.284c25.052 13.251 57.489 18.702 89.423 8.617.374 3.729 1.02 7.525 1.982 11.382-30.544 12.072-67.241 5.317-91.405-19.999zm89.448-7.24c-24.338 8.873-48.598 7.917-72.507-1.497-73.368-28.939-37.611-109.15-58.729-132.914-3.398-3.822-3.054-9.664.77-13.063 3.819-3.394 9.665-3.053 13.062.77 30.867 34.732-14.483 110.66 62.381 131.509 20.408 5.537 40.693 3.041 60.558-7.397-2.746 7.084-4.718 14.641-5.535 22.592zm-40.391-86.826c15.073 14.65 40.159 28.052 65.105 31.667-5.836 5.587-10.628 9.298-15.286 12.612-22.107-7.62-39.851-23.905-49.819-44.279zm147.819 67.079c-16.623 0-32.476 6.251-45.609 17.481 9.136-21.164 26.398-31.636 45.609-31.636 18.856 0 36.422 10.36 45.609 31.638-13.133-11.233-28.985-17.483-45.609-17.483zm98-22.8c-4.984-3.483-10.116-7.664-15.286-12.612 24.313-3.523 49.751-16.744 65.107-31.668-9.97 20.373-27.714 36.66-49.821 44.28zm7.471 69.786c.961-3.857 1.608-7.653 1.982-11.382 20.54 6.482 42.075 7.168 63.77 1.286h-.001c8.825-2.394 17.569-5.626 25.655-9.903-24.16 25.312-60.85 32.072-91.406 19.999zm133.194-161.65c-15.637 17.595-.236 64.195-20.031 100.497-18.306 33.62-68.614 49.445-111.205 33.918-.816-7.952-2.789-15.51-5.535-22.596 19.866 10.438 40.152 12.934 60.556 7.397 76.877-20.851 31.514-96.772 62.381-131.508 3.389-3.814 9.25-4.161 13.063-.771 3.815 3.39 4.16 9.249.771 13.063z"/><path d="m211.95 186.154c-2.221 3.497-1.186 8.131 2.311 10.352 3.496 2.22 8.131 1.185 10.352-2.312 2.37-3.73 7.749-3.728 10.115-.001 2.222 3.499 6.854 4.532 10.352 2.313 3.497-2.22 4.532-6.854 2.312-10.352-8.263-13.017-27.189-12.997-35.442 0z"/><path d="m264.623 186.154c-2.221 3.497-1.186 8.131 2.311 10.352 3.496 2.22 8.131 1.185 10.352-2.312 2.37-3.73 7.749-3.728 10.115-.001 2.222 3.499 6.854 4.532 10.352 2.313 3.497-2.22 4.532-6.854 2.312-10.352-8.264-13.017-27.189-12.997-35.442 0z"/></g></svg>