<?xml version="1.0" encoding="UTF-8"?>
<svg xmlns="http://www.w3.org/2000/svg" id="Outline" viewBox="0 0 512 512" width="512" height="512"><path d="M416.88,345.637c-17.837-38.491-36.9-68.913-56.663-90.424a154.6,154.6,0,0,0-24.229-21.692V128A66.408,66.408,0,0,0,318.5,82.169c13.7-13.129,16.088-27.824,15.377-38.556a57.694,57.694,0,0,0-7.027-23.729,8,8,0,0,0-12.517-1.541l-37.1,37.1q-7.092-2.775-14.99-5.114C227.539,40.117,193.423,40,191.988,40s-35.551.117-70.258,10.325q-7.913,2.328-14.989,5.114l-37.1-37.1a8,8,0,0,0-12.517,1.541A57.661,57.661,0,0,0,50.205,42.3c-1,10.906,1.036,26.233,15.271,39.876A66.373,66.373,0,0,0,48,127.655a958.588,958.588,0,0,0,5.659,137.45C63.3,347.9,82.945,409.221,112.145,448H112a40.045,40.045,0,0,0-40,40,8,8,0,0,0,8,8H295.988a39.949,39.949,0,0,0,29.271-12.763,213.658,213.658,0,0,0,42.819,10.5,239.172,239.172,0,0,0,62.72.389,168.389,168.389,0,0,0,19.64-3.59c8.3-2.1,10.517-3.553,12.1-5.831a8.113,8.113,0,0,0,1.147-6.909C462.453,472.9,445.961,408.39,416.88,345.637ZM176.922,168H207.06l-15.071,24.658Zm57.13-13.483a40,40,0,1,0,39.889-65.263l8.56-14.005c21.072,10.632,37.487,27.135,37.487,52.751,0,.305-.26,30.623-22.7,46.593-17.245,12.274-43.232,13.256-77.321,2.964Zm30.862-50.494a24,24,0,1,1-21.72,35.971l-.41.237Zm52.039-65.674a38.912,38.912,0,0,1,.988,6.856c.515,10.026-3.3,18.8-11.328,26.155a108.426,108.426,0,0,0-13.872-8.8ZM125.96,65.759C158.476,56.14,191.66,56,191.988,56c.715,0,40.587.262,75.639,12.9L216.839,152H167.146L116.368,68.9C119.437,67.8,122.625,66.746,125.96,65.759Zm14.949,73.99a24,24,0,1,1-21.829-35.726ZM66.094,44.28a39.275,39.275,0,0,1,.928-5.932L91.235,62.561a108.536,108.536,0,0,0-13.872,8.8C69.091,63.782,65.292,54.692,66.094,44.28Zm35.38,30.93,8.579,14.04a40,40,0,1,0,39.888,65.28l14.069,23.025c-34.017,10.272-59.968,9.318-77.216-2.884C64.422,158.845,63.99,128.284,63.988,128,63.988,105.366,76.579,87.681,101.474,75.21ZM112,464h8.022a39.841,39.841,0,0,0-7.217,16H89.371A24.042,24.042,0,0,1,112,464Zm17.371,16A24.042,24.042,0,0,1,152,464h48a24.042,24.042,0,0,1,22.629,16Zm166.617,0H239.2A40.068,40.068,0,0,0,200,448H152a39.754,39.754,0,0,0-16.013,3.356c-59.753-61.429-70.725-203.41-72.232-276.967A63.3,63.3,0,0,0,77.408,187.63c22.181,15.787,54.194,17.12,95.2,4l12.551,20.541A8,8,0,0,0,191.987,216h0a8,8,0,0,0,6.826-3.828l12.554-20.54q27.908,8.928,50.183,8.936c17.848,0,32.9-4.314,45.019-12.94a63.28,63.28,0,0,0,13.418-12.934v49.369a79.878,79.878,0,0,0-40.575-8.042c-34.566,2.491-59.236,14.71-73.327,36.32-10.511,16.12-14.792,37.617-12.379,62.168a148.217,148.217,0,0,0,6.724,32.117c24.542,72.075,66.35,110.14,108.224,129.756A23.974,23.974,0,0,1,295.988,480Zm25.881-15.283c-49.86-21.05-85.627-62.531-106.308-123.295-.011-.032-.025-.073-.037-.106-.17-.48-16.814-48.453,4-80.29,11.222-17.164,31.758-26.937,61.039-29.047,1.44-.1,2.866-.154,4.29-.154,50.768,0,91.736,64.971,117.423,120.348,23.933,51.6,39.18,104.485,44.158,122.919C429.084,479.488,375.5,487.357,321.869,464.717Z"/><path d="M374.077,367.435c-15.317-33.334-31.2-59.422-47.214-77.538a8,8,0,1,0-11.988,10.6c14.974,16.942,30,41.712,44.664,73.622,7.972,17.348,15.641,36.442,22.858,56.895-16.551-1.794-37.157-6.514-56.549-17.861C296.707,396.1,274.889,366.761,261,325.958l-.215-.633c-5.334-16.181-4.192-33.354-1.063-38.068a8,8,0,0,0-13.33-8.85c-9.774,14.725-3.7,43.134-.78,51.994l.241.712c15.163,44.547,39.358,76.794,71.913,95.845,27.215,15.926,56.263,20.158,75.838,20.9.1,0,.2.006.306.006a8,8,0,0,0,7.582-10.551A712.444,712.444,0,0,0,374.077,367.435Z"/><circle cx="119.988" cy="128" r="8"/><circle cx="263.988" cy="128" r="8"/><path d="M128,273.874A23.988,23.988,0,0,0,168,256a8,8,0,0,0-16,0,8,8,0,0,1-16,0,8,8,0,0,0-16,0,8,8,0,0,1-16,0,8,8,0,0,0-16,0,23.988,23.988,0,0,0,40,17.874Z"/><path d="M143.988,337.874a23.988,23.988,0,0,0,40-17.874,8,8,0,0,0-16,0,8,8,0,0,1-16,0,8,8,0,0,0-16,0,8,8,0,0,1-16,0,8,8,0,0,0-16,0,23.988,23.988,0,0,0,40,17.874Z"/><path d="M192,376a8,8,0,0,0-8,8,8,8,0,0,1-16,0,8,8,0,0,0-16,0,8,8,0,0,1-16,0,8,8,0,0,0-16,0,23.988,23.988,0,0,0,40,17.874A23.988,23.988,0,0,0,200,384,8,8,0,0,0,192,376Z"/></svg>
