<svg id="Capa_1" enable-background="new 0 0 508 508" height="512" viewBox="0 0 508 508" width="512" xmlns="http://www.w3.org/2000/svg"><g><path d="m446.602 280.89c17.96 62.63 19.95 129.47 4.85 193.85-3.19 13.6-15.27 23.26-29.24 23.26h-21.97c-34.49 0-68.18-8.6-98.12-24.73-7.3 14.66-22.42 24.73-39.9 24.73h-187.84c-34.71 0-63.04-27.67-63.98-62.37-2.37-87.24 44.28-171.79 127.68-213.61h.01c-5.63-26.88-2.12-56.15 13.18-83.2-19.9-11.52-33.31-33.02-33.31-57.68 0-36.78 29.82-66.59 66.6-66.59 17.69 0 33.76 6.91 45.69 18.17 46.74-30.29 108.32-30.29 155.06 0 11.92-11.26 28-18.17 45.69-18.17 36.78 0 66.6 29.81 66.6 66.59 0 24.66-13.41 46.16-33.31 57.68 27.86 49.27 16.62 105.89-17.69 142.07z" fill="#fff"/><path d="m307.782 238c-16.569 0-30-13.431-30-30 0-5.523 4.477-10 10-10h40c5.523 0 10 4.477 10 10 0 16.568-13.432 30-30 30zm-53.051-127.958c-16.609-9.589-37.848-3.899-47.437 12.711l-13.788 23.881c-7.732 13.392-3.143 30.517 10.249 38.249 16.131 9.313 36.758 3.786 46.071-12.345l14.788-25.613c7.455-12.914 3.031-29.427-9.883-36.883zm96.219 36.883 14.788 25.613c9.313 16.131 29.94 21.658 46.071 12.345 13.392-7.732 17.981-24.857 10.249-38.249l-13.788-23.881c-9.589-16.609-30.828-22.3-47.437-12.711-12.914 7.456-17.339 23.969-9.883 36.883z" fill="#a7bdcd"/><path d="m446.602 280.89c-21.32 22.51-51.58 37.11-86.89 37.11h-103.86c-60.92 0-106.78-43.44-117.76-95.98 0 0 0 0-.01 0 6.96 41.29 20.51 80.34 39.54 116.03-41.56-1.35-79.84 26.4-90.2 68.39-8.64 35.01 4.51 70.29 30.8 91.56h144c17.48 0 32.6-10.07 39.9-24.73 29.94 16.13 63.63 24.73 98.12 24.73h21.97c13.97 0 26.05-9.66 29.24-23.26 15.1-64.38 13.11-131.22-4.85-193.85zm-15.6-266.34c-17.69 0-33.77 6.91-45.69 18.17 17.99 11.66 33.78 27.8 45.69 48.42l32.73 56.69c.19.33.38.66.56.99 19.9-11.52 33.31-33.02 33.31-57.68 0-36.78-29.82-66.59-66.6-66.59zm-246.44 0c-36.78 0-66.6 29.81-66.6 66.59 0 24.66 13.41 46.16 33.31 57.68.18-.33.37-.66.56-.99l32.73-56.69c11.91-20.62 27.7-36.76 45.69-48.42-11.93-11.26-28-18.17-45.69-18.17z" fill="#8aa8bd"/><path d="m20.391 435.813c0 5.521-4.476 9.997-9.997 9.997s-9.997-4.476-9.997-9.997 4.476-9.997 9.997-9.997 9.997 4.476 9.997 9.997zm350.348-163.818c-13.939 10.471-30.522 16.005-47.957 16.005-5.623 0-10.819-1.866-15-5.012-4.181 3.146-9.377 5.012-15 5.012-18.111 0-35.207-5.929-49.438-17.144-4.338-3.419-5.083-9.706-1.665-14.044 3.418-4.337 9.705-5.084 14.043-1.665 10.67 8.409 23.484 12.853 37.06 12.853 2.757 0 5-2.243 5-5v-16.266c-17.232-4.452-30-20.13-30-38.734 0-11.028 8.972-20 20-20h40c11.028 0 20 8.972 20 20 0 18.604-12.767 34.282-30 38.734v16.266c0 2.757 2.243 5 5 5 13.068 0 25.498-4.148 35.945-11.995 4.416-3.319 10.685-2.427 14.001 1.989 3.317 4.416 2.427 10.685-1.989 14.001zm-62.957-43.995c11.028 0 20-8.972 20-20h-40c0 11.028 8.972 20 20 20zm-34.508-76.075-14.788 25.613c-14.285 23.526-41.382 26.526-59.731 16.005-18.177-10.423-24.386-33.763-13.909-51.909l13.788-23.881c12.33-21.357 39.738-28.702 61.097-16.371 17.668 10.201 23.743 32.874 13.543 50.543zm-32.108 15.613 6.127-10.613h-7.767c-13.315 0-13.315-20 0-20h18.331c1.467-6.998-1.547-14.564-8.127-18.223-12.11-6.734-26.884-2.799-33.777 9.051l-13.788 23.881c-4.962 8.596-1.977 19.575 6.589 24.589 13.673 8.003 28.044-.32 32.412-8.685zm175.642 26.005c-19.704 11.199-46.188 6.651-59.731-16.005l-14.788-25.613c-10.201-17.669-4.125-40.342 13.543-50.543 21.36-12.331 48.767-4.986 61.097 16.371l13.788 23.881c10.477 18.146 4.308 41.555-13.909 51.909zm-3.411-41.909-13.788-23.881c-6.817-11.807-21.969-15.867-33.777-9.051-6.52 3.764-9.594 11.225-8.127 18.223h18.331c13.315 0 13.315 20 0 20h-7.767l6.127 10.613c4.997 9.043 18.9 16.301 32.411 8.685 8.648-4.874 11.553-15.994 6.59-24.589zm63.886-9.485c18.481 38.691 16.863 83.121-4.888 120.794-4.294 7.437-9.214 14.32-14.665 20.615 17.141 63.193 18.352 129.958 3.454 193.465-4.278 18.239-20.304 30.977-38.973 30.977h-21.969c-32.991 0-65.254-7.507-94.475-21.644-7.577 9.812-22.005 21.644-43.545 21.644h-187.86c-19.451 0-40.257-7.952-55.05-24.59-3.661-4.118-3.285-10.39.77-14.12 4.313-3.968 10.732-3.016 14.12.77 10.219 11.418 24.89 17.94 40.18 17.94h20.426c-17.797-23.709-24.677-54.644-17.093-83.951 13.046-50.412 54.314-70.989 84.101-75.266-14.011-29.011-24.482-59.739-31.008-91.489-57.548 33.183-96.432 89.114-107.466 155.336-.81 4.85-5.334 9.112-11.51 8.229-5.192-.742-9.18-5.87-8.22-11.51 16.584-97.429 81.463-150.3 123.327-172.833-3.693-25.035.068-50.767 11.341-74.367-18.901-14.378-30.32-36.976-30.32-61.006 0-42.236 34.361-76.598 76.597-76.598 17.002 0 33.285 5.586 46.622 15.85 22.729-13.201 48.939-20.395 76.603-20.395 27.665 0 53.875 7.193 76.603 20.395 13.337-10.263 29.62-15.849 46.621-15.849 42.236 0 76.597 34.361 76.597 76.598 0 24.028-11.419 46.627-30.32 61.005zm-329.224-17.788 27.839-48.218c9.93-17.199 22.707-31.883 37.554-43.648-8.674-5.171-18.604-7.95-28.893-7.95-31.208 0-56.597 25.39-56.597 56.598-.001 16.75 7.514 32.558 20.097 43.218zm139.795 352.256c-10.624-6.438-20.74-13.804-30.208-22.071-34.813-30.399-63.791-66.556-85.848-106.47-35.226 1.287-66.115 26.11-74.666 60.764-7.127 28.879 2.578 59.562 24.761 79.16h140.338c9.962 0 19.169-4.211 25.623-11.383zm112.388 11.383c8.427 0 11.545-8.655 9.141-14.077-24.569-55.407-60.172-104.71-105.237-145.923h-48.297c-33.097 0-63.751-12.055-87.213-33.382 21.819 55.317 56.784 105.236 102.166 144.864 35.83 31.288 81.799 48.518 129.44 48.518zm40.929-188.448c-22.618 18.243-51.004 28.448-81.457 28.448h-26.644c10.149 10.168 19.776 20.748 28.868 31.726.255-1.409.52-2.815.802-4.217 1.092-5.414 6.368-8.919 11.779-7.826 5.414 1.092 8.918 6.365 7.826 11.779-1.495 7.414-2.54 14.938-3.171 22.425 18.99 26.04 35.195 54.067 48.479 83.901 3.007 6.753 3.38 14.212 1.251 21.066 6.29-2.229 11.199-7.539 12.808-14.399 13.3-56.691 13.069-116.122-.541-172.903zm13.904-156.721-32.729-56.688c-23.913-41.416-66.74-66.143-114.564-66.143s-90.652 24.727-114.564 66.144l-32.729 56.688c-19.904 34.475-19.904 75.639 0 110.113 19.904 34.473 55.552 55.055 95.36 55.055h103.865c39.808 0 75.457-20.582 95.36-55.057 19.904-34.473 19.904-75.637.001-110.112zm32.528-61.687c0-31.208-25.389-56.598-56.597-56.598-10.288 0-20.218 2.779-28.892 7.949 14.846 11.765 27.622 26.448 37.552 43.648l27.839 48.218c12.582-10.659 20.098-26.468 20.098-43.217z"/></g></svg>