<svg id="Layer_1" height="512" viewBox="0 0 512 512" width="512" xmlns="http://www.w3.org/2000/svg" data-name="Layer 1"><path d="m501.286 188.608c-3.323-1.613-11.8-7.9-18.707-31.41-5.105-17.37-14.992-27.008-25.037-31.969.5-12.555-7.842-24.52-15.472-32.757a11.29 11.29 0 0 0 -8.249-3.573 11.015 11.015 0 0 0 -8.094 3.612 34.017 34.017 0 0 0 -4.439 6.414 26.787 26.787 0 0 0 -6.51-1.406 6.02 6.02 0 0 0 -3.83 1.015 33.437 33.437 0 0 0 -13.795 18.183c-7.4 2.124-15.646 6.523-19.817 10.782a27.615 27.615 0 0 1 -28.837 6.548c-18.863-6.646-45.192-16.076-78.257-28.027-50.824-18.374-92.122-3.579-117.818 12.067-29.56 18-50.454 44.082-58.048 61.951-14.386 33.851-28.124 56.041-29.351 58a555.544 555.544 0 0 0 -34.452 55.153c-22.273 41.153-30.032 71.193-23.064 89.286 3.749 9.733 11.791 16.157 23.258 18.578 7.776 1.643 14.506.612 20-3.064 12.1-8.1 15.6-27.012 19.64-48.9 4.01-21.712 8.556-46.321 22.246-62.338a6.863 6.863 0 0 1 10.951.754 105.614 105.614 0 0 1 16.526 62.109c-1.316 28.571 9.473 44.882 20.2 57.071.918 1.044 1.031 1.668.715 3.93a11 11 0 0 0 10.899 12.483h.163l36.1-.535c.1 0 .206-.006.31-.013 3.928-.261 10.755-2.986 13.352-7.422a7.9 7.9 0 0 0 .547-7.125l25.664-.383c.1 0 .207-.006.311-.013a10.453 10.453 0 0 0 8.771-14.9c-2.692-5.646-8.513-9.617-17.3-11.8-3.084-.767-7.714-4.9-9.693-9.828-1.259-3.135-1.192-5.838.2-8.035a36.685 36.685 0 0 1 3.463-3.954c5.916-6.268 16.539-17.537 25.991-41.66a58.709 58.709 0 0 0 17.176 4.821 135.744 135.744 0 0 0 38.548-1.229l1.416 15.695c.014.157.034.313.061.469a141.379 141.379 0 0 0 13.447 40.475c4.233 8.31 4.038 10.911 4.028 11.013a8.346 8.346 0 0 0 1.866 6.275 8.447 8.447 0 0 0 5.9 3.014c.064 0 .13.008.194.01l22.306.785a4.834 4.834 0 0 1 .283 1.153 8.351 8.351 0 0 0 2.714 5.958 8.45 8.45 0 0 0 5.658 2.194c.191 0 .383-.006.574-.019l34.092-2.261a6 6 0 0 0 5.6-5.987c0-.691-.292-16.853-25.475-24.3-1.2-1.429-3.88-7.081-5.579-17.263-1.549-9.283-1.466-17.881.213-21.907.492-1.18 1.134-2.605 1.876-4.255a151.53 151.53 0 0 0 8.353-21.914c25.941-12.079 36.618-24.977 46.642-55.511 4.4-13.4 14.544-35.719 33.233-34.616a141.027 141.027 0 0 0 30.945-1.945c.586-.1 1.009-.168 1.181-.189 10-.895 16.671-8.7 20.507-15.1a9.98 9.98 0 0 0 1-7.964 10.165 10.165 0 0 0 -5.296-6.226zm-28.055-21.291a103.045 103.045 0 0 0 4.461 10.838c-8.083.322-19.009 2.008-27.945 7.882-3.458 2.273-8.763 2.384-13.964 1.624a72.279 72.279 0 0 0 15.375-12.621c7.293-7.94 17.131-8.202 22.073-7.723zm-39.283-65.946c4.271 4.734 10.082 12.351 11.357 19.885a42.577 42.577 0 0 0 -5.3-.573 27.694 27.694 0 0 0 -8.384-15.631 25.779 25.779 0 0 1 2.327-3.681zm-228.848 249.482a40.742 40.742 0 0 0 -4.88 5.78c-3.463 5.479-3.885 12.2-1.189 18.916 3.242 8.073 10.784 15.223 17.934 17a21.361 21.361 0 0 1 7.4 3.126l-37.92.566c-.482-.136-.971-.269-1.473-.393-3.084-.768-7.715-4.9-9.694-9.829-1.258-3.134-1.192-5.837.2-8.035a96.293 96.293 0 0 1 7.228-8.373c11.189-12.246 30.139-33.012 41.629-59.868 1.348.671 2.78 1.417 4.25 2.186l.417.217c-8.669 22.561-18.11 32.568-23.902 38.707zm121.2 35.247c-.546-3.647-2.23-8.174-5.141-13.887a129.45 129.45 0 0 1 -12.272-36.813l-1.549-17.169q3.265-.956 6.476-2.1l10.786 44.469a66.4 66.4 0 0 0 11.887 24.777c.3.385.556.74.83 1.107zm157.7-180.161c-.47.041-1.028.132-2.043.3a129.792 129.792 0 0 1 -28.306 1.81c-19.76-1.181-35.885 14.051-45.339 42.851-8.312 25.326-16.62 35.765-32.57 44.5.828-11.321-1.422-23.187-10.245-33.587a6 6 0 1 0 -9.15 7.764c8.679 10.23 8.659 22.977 5.887 34.613-.041.14-.073.281-.1.422-2.114 8.649-5.713 16.658-8.354 22.524-.779 1.731-1.453 3.227-2.009 4.563-4.9 11.755-.827 36.08 4.31 46.742 2.278 4.728 4.957 7.475 8.191 8.4 7.591 2.164 11.878 5.034 14.3 7.544l-22.139 1.467c-1.029-3.55-3.691-8.971-10.4-17.758a54.449 54.449 0 0 1 -9.761-20.321l-10.83-44.659a11.821 11.821 0 0 0 -15.48-8.351c-5.8 2.086-23.464 8.429-51.739 5.547-8.464-.864-16.756-5.2-24.072-9.018-1.975-1.031-3.821-1.993-5.575-2.839a109.074 109.074 0 0 0 5.4-38.707 6 6 0 1 0 -11.986.555c2.139 46.2-31.813 83.357-48.129 101.216-4.215 4.614-7 7.662-8.514 10.057-3.463 5.48-3.885 12.2-1.188 18.916 3.241 8.073 10.783 15.224 17.933 17a22.835 22.835 0 0 1 6.873 2.757 6.1 6.1 0 0 1 -1.151.318l-34.721.515a15.144 15.144 0 0 0 -3.744-12.328c-9.6-10.913-18.336-24.353-17.221-48.593a117.531 117.531 0 0 0 -18.4-69.128 18.862 18.862 0 0 0 -30.18-2.083c-15.805 18.469-20.66 44.762-24.948 67.96-3.4 18.422-6.617 35.822-14.517 41.113-2.736 1.833-6.282 2.255-10.841 1.294-7.606-1.607-12.225-5.15-14.537-11.15-11.511-29.888 36.631-106.317 56.152-133.244.072-.1.14-.2.2-.3.6-.946 14.94-23.607 30.36-59.889 11.852-27.89 74.434-98.628 160.741-67.426 33.1 11.963 59.456 21.4 78.349 28.06a39.657 39.657 0 0 0 41.4-9.469c1.816-1.856 5.9-4.3 10.2-6.1a24.911 24.911 0 0 0 .867 4.247 6 6 0 0 0 11.451-3.587 20.155 20.155 0 0 1 .06-9.739 20.359 20.359 0 0 1 7.306-10.857 19.149 19.149 0 0 1 5.317 2.238c4.893 3.039 7.351 7.92 7.514 14.922a6 6 0 0 0 6.813 5.8 32.991 32.991 0 0 1 14.17 2.055c8.885 3.337 15.448 10.174 19.58 20.336-7.672.176-18.325 2.4-26.871 11.712a60.882 60.882 0 0 1 -25.225 16.318 6 6 0 0 0 -.829 11.278c1.772.78 13.127 5.571 24.693 5.57 5.4 0 10.844-1.044 15.382-4.026 9.64-6.338 23.358-6.185 28.808-5.827a34.376 34.376 0 0 0 9.012 8.143c-2.199 3.206-5.771 7.167-10.155 7.559z"/></svg>