<?xml version="1.0"?>
<svg xmlns="http://www.w3.org/2000/svg" id="Outline" viewBox="0 0 512 512" width="512" height="512"><path d="M491.062,200.609a8,8,0,0,0-8.719,1.734L456,228.687l-8-8V200a8,8,0,0,0-8-8H421.665c-1.31-3.428-3.3-8.189-6.051-13.692a35.137,35.137,0,0,0,4.754-5.318c7.439-10.321,8.522-23.617,3.221-39.52a8,8,0,0,0-6.274-5.362c-.865-.141-19.667-3.106-34.213,7.439C364.9,119.934,343.71,112,320,112c-31.934,0-40.712,4.667-48.458,8.784-7.877,4.188-15.319,8.147-75.422-.281-4.488-4.9-15.2-14.726-29.009-14.726-9.854,0-18.907,4.782-26.955,14.223H101.64a24.024,24.024,0,0,0-15.607,5.767c-10.346,8.872-29.349,27.749-40.372,54.488A111.091,111.091,0,0,0,40.3,196.813c-25.389,31.69-24.913,66.77-24.433,100.714.067,4.738.136,9.635.136,14.473a8,8,0,0,0,16,0c0-4.951-.07-9.906-.138-14.7-.329-23.327-.618-44.5,6.309-64.286,1.923,16.253,7.679,32.491,17.247,48.325L42.441,333.26a24.108,24.108,0,0,0,6.312,22.807L72,379.313V384a24.028,24.028,0,0,0,24,24h56a8,8,0,0,0,8-8V384a24.027,24.027,0,0,0-24-24h-2.583l-12.03-30.073,24.238-24.238c11.739,4.865,42.229,13.633,110.375,14.274V384a24.028,24.028,0,0,0,24,24h56a8,8,0,0,0,8-8V384a24.027,24.027,0,0,0-24-24h-.31a108.2,108.2,0,0,1,4.147-29.3c6.843-23.465,21.163-40.074,42.6-49.434l34.774,30.428a40.009,40.009,0,0,0,57.924-5.539l28.44-36.57A40.2,40.2,0,0,0,496,245.02V208A8,8,0,0,0,491.062,200.609ZM390.241,150.4c5.806-5.725,14.315-6.767,19.61-6.789,1.921,8.341,1.106,15.051-2.439,19.994-5.282,7.364-16.251,10.569-24.236,11.774C382.6,163.982,384.963,155.6,390.241,150.4ZM480,245.02a24.127,24.127,0,0,1-5.055,14.739l-28.439,36.568a24.01,24.01,0,0,1-34.758,3.322l-38.48-33.67a8,8,0,0,0-8.077-1.469c-28.638,10.739-48.308,32.279-56.883,62.292a119.9,119.9,0,0,0-4.259,42.082A8,8,0,0,0,312,376h8a8.009,8.009,0,0,1,8,8v8H280a8.009,8.009,0,0,1-8-8V312a8,8,0,0,0-8-8c-72.311,0-107.172-9.579-115.609-14.689a7.694,7.694,0,0,0-10.048,1.032l-32,32a8,8,0,0,0-1.771,8.628l16,40A8,8,0,0,0,128,376h8a8.009,8.009,0,0,1,8,8v8H96a8.009,8.009,0,0,1-8-8v-8a8,8,0,0,0-2.343-5.657l-25.59-25.589a8.034,8.034,0,0,1-2.106-7.6l13.8-55.211a8,8,0,0,0-1.011-6.234c-18.978-29.826-22.442-59.889-10.3-89.352C70.567,161.818,89,144.3,96.439,137.92a8.009,8.009,0,0,1,5.2-1.92H144a8,8,0,0,0,6.4-3.2c5.468-7.29,11.072-11,16.656-11.022h.053c8.267,0,16.162,7.971,18.491,11.023a8.005,8.005,0,0,0,5.269,3.12c64.724,9.246,75.675,5.64,88.183-1.008,6.094-3.24,13-6.912,40.948-6.912,19.688,0,37.337,6.6,52.573,19.6-5.179,9.561-6.693,22.131-4.492,37.537A8,8,0,0,0,376,192a77.274,77.274,0,0,0,16.591-2.188,64.356,64.356,0,0,0,9.361-3.031,118.12,118.12,0,0,1,6.385,15.516A8,8,0,0,0,416,208h16v16a8,8,0,0,0,2.343,5.657l16,16a8,8,0,0,0,11.314,0L480,227.313Z"/><circle cx="416" cy="248" r="8"/></svg>
