<?xml version="1.0" encoding="iso-8859-1"?>
<!-- Generator: Adobe Illustrator 19.0.0, SVG Export Plug-In . SVG Version: 6.00 Build 0)  -->
<svg version="1.1" id="Capa_1" xmlns="http://www.w3.org/2000/svg" xmlns:xlink="http://www.w3.org/1999/xlink" x="0px" y="0px"
	 viewBox="0 0 512 512" style="enable-background:new 0 0 512 512;" xml:space="preserve">
<g>
	<g>
		<path d="M440.885,277c-5.534,0-10.021,4.478-10.021,10v35.911C405.24,327.626,385.77,350.086,385.77,377
			c0,7.547,1.542,14.738,4.314,21.29c-11.104,3.362-19.503,12.976-21.076,24.718c-0.092-0.001-0.182-0.008-0.274-0.008
			c-12.153,0-22.637,7.238-27.371,17.618c-3.047-1.042-6.309-1.618-9.706-1.618c-9.259,0-17.551,4.2-23.068,10.79
			c-6.025-4.867-13.689-7.79-22.026-7.79c-4.496,0-8.796,0.85-12.749,2.396c-3.526-11.579-12.18-20.95-23.315-25.466
			c1.289-4.425,1.993-9.095,1.993-13.929c0-3.444-0.377-6.798-1.047-10.046c7.139-6.988,12.8-15.474,16.446-24.954h26.535
			c0,0,24.547,28.433,24.628,28.527c8.283,9.594,23.679-3.213,15.184-13.054l-27.627-32c-1.903-2.205-4.676-3.473-7.592-3.473
			h-26.685c0.118-1.654,0.199-20,0.199-20h50.537c2.684,0,5.257-1.075,7.141-2.984c0,0,27.571-27.943,27.627-28
			c8.831-8.95-5.142-23.299-14.282-14.031L318.874,310h-46.341v-20h26.487c2.684,0,5.257-1.075,7.141-2.984
			c0,0,27.496-27.867,27.626-28c9.099-9.222-5.213-23.227-14.281-14.032L294.824,270h-22.291v-32.719
			c3.136,1.11,6.508,1.719,10.021,1.719c16.249,0,29.52-12.934,30.038-29.026c22.169,0.553,41.111-17.749,41.111-39.974
			c0-10.072-3.752-19.283-9.934-26.32c26.469-11.617,45.007-38.022,45.007-68.68c0-41.355-33.714-74.999-75.155-75
			c-6.546,0-11.403,6.381-9.66,12.669l16.198,58.37l-16.188,11.922c0,0-24.058-60.239-24.122-60.397
			c-2.515-6.297-10.851-8.278-15.941-3.795C247.739,33.015,238.463,53.51,238.463,75c0,20.459,8.118,39.581,22.859,53.842
			c6.532,6.319,14.031,11.304,22.14,14.856c-6.174,7.035-9.926,16.236-9.926,26.302c0,3.456,0.442,6.81,1.271,10.01
			c-4.979,1.327-9.44,3.913-13.051,7.376C252.224,175.003,237.247,167,220.424,167H184.35c-16.824,0-31.802,8.005-41.336,20.39
			c-3.607-3.465-8.069-6.048-13.048-7.375c0.83-3.202,1.273-6.558,1.273-10.015c0-10.067-3.762-19.261-9.938-26.297
			c8.114-3.552,15.616-8.539,22.151-14.861c30.994-29.985,29.736-81.598-2.585-110.073c-5.135-4.524-13.413-2.537-15.942,3.794
			L100.803,82.96L84.616,71.039c0,0,16.113-58.063,16.197-58.369C102.522,6.515,97.531,0,91.157,0C49.715,0,16,33.645,16,75
			c0,30.66,18.539,57.065,45.011,68.682c-6.181,7.038-9.938,16.246-9.938,26.318c0,22.056,17.981,40,40.084,40
			c0.344,0,0.684-0.017,1.026-0.026C92.701,226.066,105.971,239,122.22,239c3.513,0,6.885-0.608,10.021-1.719V270h-22.289
			c0,0-24.565-24.896-24.682-25.015c-9.062-9.185-23.379,4.813-14.281,14.031l27.627,28c1.883,1.909,4.456,2.984,7.14,2.984h26.485
			v20H85.902c0,0-24.569-24.9-24.682-25.015c-9.098-9.221-23.355,4.837-14.281,14.031l27.627,28c1.883,1.909,4.456,2.984,7.14,2.984
			h50.535c0,0,0.081,18.346,0.199,20h-26.684c-2.917,0-5.688,1.268-7.592,3.473c0,0-27.535,31.894-27.627,32
			c-8.318,9.635,6.756,22.815,15.184,13.055L110.35,370h26.533c3.643,9.473,9.299,17.954,16.43,24.938
			c-0.671,3.251-1.029,6.615-1.029,10.062c0,26.617,16.819,48.034,43.128,49.512c-0.018,0.495-0.038,0.989-0.038,1.488
			c0,22.056,17.981,40,40.084,40c6.892,0,13.383-1.746,19.054-4.816c5.465,12.25,17.772,20.816,32.052,20.816
			c12.764,0,23.954-6.842,30.09-17.041c4.421,2.557,9.537,4.041,15.004,4.041c12.152,0,22.635-7.237,27.37-17.614
			c3.047,1.042,6.31,1.614,9.707,1.614c15.219,0,27.825-11.347,29.788-26.008c0.092,0.001,0.182,0.008,0.274,0.008
			c15.353,0,28.046-11.547,29.838-26.393c3.942,0.901,8.038,1.393,12.25,1.393c30.39,0,55.115-24.673,55.115-55v-45
			C496,301.673,471.276,277,440.885,277z M313.62,190c-11.051,0-20.042-8.972-20.042-20s8.99-20,20.042-20
			c11.051,0,20.042,8.972,20.042,20S324.671,190,313.62,190z M337.608,83.046c3.34-2.46,4.815-6.722,3.707-10.715l-14.049-50.625
			C351.079,27.78,368.735,49.371,368.735,75c0,30.327-24.724,55-55.115,55c-10.292,0-20.192-2.821-28.781-8.092L337.608,83.046z
			 M269.689,108.209C262.43,98.704,258.505,87.174,258.505,75c0-10.665,3.117-20.996,8.811-29.801l19.984,50.04L269.689,108.209z
			 M282.554,199c5.379,0,10.021,4.637,10.021,10c0,5.514-4.496,10-10.021,10c-5.525,0-10.021-4.486-10.021-10
			C272.533,203.486,277.029,199,282.554,199z M137.461,45.199c5.693,8.805,8.811,19.137,8.811,29.801
			c0,12.175-3.925,23.705-11.184,33.209l-17.612-12.97L137.461,45.199z M36.042,75c0-25.629,17.655-47.22,41.468-53.294
			L63.462,72.331c-1.108,3.993,0.366,8.255,3.707,10.715l52.769,38.862c-8.589,5.271-18.489,8.092-28.781,8.092
			C60.766,130,36.042,105.327,36.042,75z M91.157,190c-11.051,0-20.042-8.972-20.042-20s8.991-20,20.042-20
			c11.051,0,20.042,8.972,20.042,20S102.207,190,91.157,190z M122.22,219c-5.525,0-10.02-4.485-10.021-9.998
			C112.198,203.948,116.855,199,122.22,199c5.526,0,10.021,4.486,10.021,10C132.241,214.514,127.746,219,122.22,219z M184.351,187
			h36.074c17.682,0,32.067,14.355,32.067,32v24.649c-2.934,3.471-20.132,10.851-50.104,10.851c-29.972,0-47.17-7.38-50.104-10.851
			V219h-0.001C152.283,201.355,166.668,187,184.351,187z M152.283,266.503c13.357,5.433,31.768,7.997,50.104,7.997
			c18.342,0,36.744-2.574,50.104-8.01v21.158c-2.934,3.471-20.132,10.851-50.104,10.851s-47.17-7.38-50.104-10.851V266.503z
			 M152.283,331.649v-21.145c13.358,5.432,31.769,7.996,50.104,7.996c18.341,0,36.745-2.573,50.104-8.009v21.158
			c-2.934,3.471-20.132,10.851-50.104,10.851S155.217,335.12,152.283,331.649z M153.272,354.892
			c13.268,5.165,31.225,7.608,49.116,7.608c17.883,0,35.841-2.438,49.114-7.597C246.883,377.746,226.618,395,202.387,395
			C178.152,395,157.885,377.74,153.272,354.892z M202.388,435c-15.455,0-28.218-11.699-29.875-26.688
			c9.068,4.282,19.192,6.688,29.874,6.688c10.683,0,20.808-2.407,29.876-6.689C230.607,423.3,217.843,435,202.388,435z M235.457,476
			c-11.682,0-21.493-11.096-19.821-22.787c10.081-2.762,18.906-8.583,25.388-16.412c8.348,2.415,14.475,10.1,14.475,19.199
			C255.499,467.028,246.508,476,235.457,476z M286.564,492c-8.289,0-15.031-6.729-15.031-15s6.743-15,15.031-15
			c8.289,0,15.031,6.729,15.031,15S294.852,492,286.564,492z M331.658,479c-5.525,0-10.021-4.486-10.021-10
			c0-5.514,4.496-10,10.021-10c5.525,0,10.021,4.486,10.021,10C341.679,474.514,337.183,479,331.658,479z M368.735,463
			c-5.525,0-10.021-4.486-10.021-10c0-5.514,4.496-10,10.021-10c5.525,0,10.021,4.486,10.021,10
			C378.756,458.514,374.26,463,368.735,463z M398.797,437c-5.525,0-10.021-4.486-10.021-10c0-5.514,4.496-10,10.021-10
			c5.525,0,10.021,4.486,10.021,10C408.818,432.514,404.323,437,398.797,437z M475.958,377c0,19.299-15.734,35-35.073,35
			s-35.073-15.701-35.073-35s15.734-35,35.073-35c5.534,0,10.021-4.478,10.021-10v-33.545c14.472,4.313,25.052,17.72,25.052,33.545
			V377z"/>
	</g>
</g>
<g>
	<g>
		<path d="M182.347,207c-5.534,0-10.021,4.478-10.021,10v4c0,5.522,4.486,10,10.021,10c5.534,0,10.021-4.478,10.021-10v-4
			C192.368,211.478,187.882,207,182.347,207z"/>
	</g>
</g>
<g>
	<g>
		<path d="M222.43,207c-5.534,0-10.021,4.478-10.021,10v4c0,5.522,4.487,10,10.021,10s10.021-4.478,10.021-10v-4
			C232.451,211.478,227.965,207,222.43,207z"/>
	</g>
</g>
<g>
</g>
<g>
</g>
<g>
</g>
<g>
</g>
<g>
</g>
<g>
</g>
<g>
</g>
<g>
</g>
<g>
</g>
<g>
</g>
<g>
</g>
<g>
</g>
<g>
</g>
<g>
</g>
<g>
</g>
</svg>
