<?xml version="1.0" encoding="iso-8859-1"?>
<!-- Generator: Adobe Illustrator 19.0.0, SVG Export Plug-In . SVG Version: 6.00 Build 0)  -->
<svg version="1.1" id="Capa_1" xmlns="http://www.w3.org/2000/svg" xmlns:xlink="http://www.w3.org/1999/xlink" x="0px" y="0px"
	 viewBox="0 0 512.004 512.004" style="enable-background:new 0 0 512.004 512.004;" xml:space="preserve">
<g>
	<g>
		<ellipse cx="68.619" cy="238.782" rx="11.432" ry="11.271"/>
	</g>
</g>
<g>
	<g>
		<path d="M54.159,407.955c-34.374,0-59.2,9.095-53.265,42.991c4.61,26.333,26.148,61,53.265,61
			c27.443,0,49.662-35.997,53.563-62.91C112.445,416.299,87.197,407.955,54.159,407.955z M54.159,496.948
			c-16.56,0-30.931-23.321-36.274-39.795h72.55C85.09,473.627,70.685,496.948,54.159,496.948z M93.279,442.153h-78.24
			c-0.002-0.153-0.014-0.314-0.014-0.465c0-9.064,3.024-18.733,39.133-18.733s39.134,9.67,39.134,18.733
			C93.293,441.839,93.281,442,93.279,442.153z"/>
	</g>
</g>
<g>
	<g>
		<path d="M404.541,144.845c-3.78-1.682-8.217,0.019-9.901,3.803c-1.684,3.785,0.019,8.218,3.803,9.902
			c109.574,48.761,126.69,192.464,57.181,260.99c-40.344,39.773-87.223,42.857-124.771,35.5
			c32.875-12.631,57.66-30.871,70.639-67.435c11.755-33.11,10.965-73.56-2.115-108.203
			c-25.827-68.406-96.246-103.112-154.178-89.445c-37.026-70.668-48.624-141.801,25.391-171.591
			c4.354-1.414,11.164-3.377,15.752-3.377c-0.02,0.039-0.039,0.076-0.059,0.112c-9.562,14.159-11.881,32.907-6.357,51.522
			c5.567,18.76,24.129,54.029,85.885,79.459c3.833,1.578,8.214-0.25,9.791-4.08s-0.25-8.214-4.08-9.791
			c-40.894-16.838-69.038-42.3-77.217-69.855c-4.342-14.631-2.709-28.531,4.598-39.137c3.382-4.915,4.513-12.88,0.362-18.051
			c-6.736-8.394-21.478-4.936-33.567-0.984c-0.154,0.051-0.307,0.105-0.458,0.166c-82.179,32.905-75.157,111.171-34.819,189.668
			c-0.973,0.293-1.942,0.586-2.902,0.877c-24.165,7.326-45.113,13.652-82.462-7.126c5.922-15.756,8.954-33.877,3.423-51.463
			c-5.308-16.879-16.122-25.194-16.58-25.54c-2.234-1.687-5.222-1.989-7.749-0.784c-9.356,4.463-17.369,10.465-23.958,17.815
			c-12.895-20.163-32.018-25.68-32.87-25.917c-2.818-0.781-5.836,0.146-7.728,2.38c-19.706,23.262-23.174,52.079-10.176,83.637
			C26.66,204.39,18.92,222.669,12.499,236.639c-13.081,28.466-25.169,57.04,15.957,73.511c21.657,8.675,40.638-0.444,55.89-7.772
			c18.076-8.687,26.307-11.944,35.269,0.395c-1.151,5.319-7.271,19.829-39.709,19.829c-57.127,0-52.942,79.355-11.81,79.355
			c24.247,0,25.227-14.035,25.697-20.78c0.054-0.771,0.127-1.817,0.235-2.553c13.82-1.695,35.745,20.479,71.826,9.83
			c1.829,11.072,7.366,28.966,23.911,45.277c10.887,10.732,12.899,16.703,12.779,18.198c-9.596,7.194-50.183-12.011-75.358,9.676
			c-10.361,8.927-15.613,23.341-15.613,42.843c0,4.143,3.357,7.5,7.5,7.5h112.027c4.143,0,7.5-3.357,7.5-7.5s-3.357-7.5-7.5-7.5
			H126.897c2.765-30.036,22.252-34.113,52.782-29.548c19.993,2.992,31.872,0.135,36.302-8.734
			c4.54-9.085-0.592-20.735-15.686-35.616c-6.728-6.634-11.225-13.524-14.24-19.856c-8.727-26.734-5.566-51.463,9.401-73.501
			c11.388-16.77,25.718-25.759,26.036-25.956c3.53-2.157,4.647-6.767,2.494-10.301c-2.154-3.538-6.769-4.657-10.307-2.504
			c-0.687,0.418-16.969,10.466-30.275,29.81c-8.349,12.138-16.534,29.598-17.07,51.727c-32.954,12.504-49.832-8.914-71.001-8.914
			c-19.804,0-15.171,18.884-17.443,21.45c-0.289,0.326-2.118,1.952-9.795,1.952c-20.605,0-25.946-49.356,11.81-49.356
			c22.06,0,37.994-5.854,47.364-17.4c5.976-7.364,7.262-14.789,7.536-17.91c4.34-13.172,11.395-24.583,20.996-33.917
			c2.971-2.888,3.037-7.636,0.15-10.605c-2.888-2.97-7.636-3.038-10.605-0.15c-8.558,8.32-15.396,18.009-20.433,28.908
			c-28.413-23.968-57.915,22.904-90.882,9.701c-30.103-12.059-19.102-28.086-4.249-61.356
			c12.823-28.714,36.469-41.089,49.147-45.857c-0.016,6.996,0.624,11.548,0.675,11.897c0.599,4.1,4.417,6.93,8.504,6.34
			c4.1-0.599,6.938-4.405,6.34-8.504c-0.076-0.522-6.877-50.602,31.617-72.838c7.178,8.266,21.532,32.669-5.12,77.178
			c-3.005,5.021,0.657,11.354,6.428,11.354c2.55,0,5.036-1.301,6.441-3.648c1.727-2.883,3.461-5.984,5.134-9.259
			c77.441,42.309,96.056-18.945,168.694,6.921c46.708,16.628,68.035,50.641,77.703,76.245c11.864,31.426,12.617,68.018,2.014,97.889
			c-25.039,70.53-97.006,52.368-91.722,84.465c2.368,14.377,2.165,23.293-0.604,26.499c-3.309,3.832-14.562,3.641-28.807,3.397
			c-4.129-0.11-7.557,3.229-7.627,7.371c-0.07,4.142,3.229,7.557,7.371,7.627c36.896,0.627,51.498-3.344,44.61-46.399
			c56.569,16.243,112.244,7.392,155.574-35.326C541.715,355.727,525.655,198.742,404.541,144.845z M80.131,172.804
			c-6.149,1.785-12.095,4.175-17.761,7.106c-9.079-23.509-7.273-44.239,5.392-61.773c15.966,7.707,20.603,20.399,23.148,22.547
			C85.21,150.633,81.8,161.506,80.131,172.804z"/>
	</g>
</g>
<g>
</g>
<g>
</g>
<g>
</g>
<g>
</g>
<g>
</g>
<g>
</g>
<g>
</g>
<g>
</g>
<g>
</g>
<g>
</g>
<g>
</g>
<g>
</g>
<g>
</g>
<g>
</g>
<g>
</g>
</svg>
