<svg height="511pt" viewBox="0 -20 511.86117 511" width="511pt" xmlns="http://www.w3.org/2000/svg"><path d="m407.792969 81.625c9.875 9.644531 21.351562 17.503906 33.914062 23.222656 4.21875 2.085938 7.96875 3.761719 11 5.109375l1.84375.824219c2.957031 1.324219 7.714844 4.078125 12.75 6.984375 13.992188 8.082031 22.964844 13.007813 29.582031 13.300781 3.9375.183594 7.773438-1.289062 10.574219-4.058594 3.191407-3.476562 4.761719-8.132812 4.335938-12.832031-.402344-5.097656-2.042969-10.027343-4.78125-14.347656-2.246094-3.542969-4.777344-6.898437-7.566407-10.035156-2.304687-2.5625-4.390624-5.316407-6.226562-8.234375-2.40625-4.449219-4.46875-9.082032-6.167969-13.847656-.769531-2-1.542969-3.984376-2.351562-5.957032-.789063-1.902344-1.722657-3.835937-2.664063-5.785156-1.34375-2.5625-2.476562-5.230469-3.394531-7.972656-3.90625-13.636719-12.398437-19.585938-25.238281-28.589844l-2.835938-1.988281c-27.914062-19.527344-55.839844-22.367188-76.574218-7.75-26.859376 18.898437-47.507813 63.558593-17.308594 127.199219 10.359375 21.84375 21.273437 42.058593 30.902344 59.890624 17.453124 32.320313 32.515624 60.253907 36.527343 83.324219-12.027343-19.546875-28.769531-35.753906-48.695312-47.140625-13.269531-7.625-27.695313-13.027344-42.710938-15.992187l-.046875-.011719c-22.511718-8.929688-46.144531-14.710938-70.234375-17.179688l-10.339843-1.363281c-65.792969-8.695312-79.484376-10.503906-128.300782-43.417969-9.125-6.460937-18.714844-12.230468-28.691406-17.269531l-1.019531-.488281c-5.921875-4.074219-13.480469-4.929688-20.164063-2.285156-4.035156 2.410156-8.125 7.515625-4.71875 18.183594 7.566406 22.433593 22.277344 41.765624 41.878906 55.039062-20.574218-3.832031-40.644531-10.007812-59.816406-18.40625-4.140625-2.90625-9.644531-2.953125-13.835937-.117188-2.792969 2.023438-7.039063 7.167969-4.234375 18.882813 5.683594 17.796875 17.136718 33.1875 32.554687 43.734375-3.417969.535156-6.5625 2.171875-8.953125 4.664062-4.195312 4.90625-5.28125 11.746094-2.816406 17.710938 3.933594 11.679688 17.917969 25.035156 40.835938 32.675781-5.289063 1.480469-9.488282 5.507813-11.1875 10.730469-1.273438 5.320312.226562 10.921875 3.988281 14.890625-7.421875 2.5625-15.21875 3.875-23.070313 3.890625-9.429687-.496094-18.769531-2.097656-27.820312-4.777344-14.164063-3.585937-25.367188-6.433594-32.457032.664063-4.195312 5.179687-5.386718 12.167969-3.144531 18.441406 6.507813 25.316406 60.648438 99.773437 177.410157 115.734375 25.59375 3.425781 51.390624 5.117188 77.214843 5.066406 38.585938.039063 77.09375-3.488281 115.03125-10.535156 6.789063-1.324219 13.582031-2.574219 20.789063-3.90625 22.5-4.183594 97.195312-23.175781 113.652344-91.902344 19.257812-80.332031-18.550782-133.539062-58.960938-190.40625-39.523438-55.535156-47.640625-70.125-48.234375-86.773437-.597656-4.101563.136719-8.285157 2.101563-11.9375.707031-.03125 3.359374.800781 7.675781 5.144531zm58.875-18.222656c.800781 1.652344 1.589843 3.277344 2.25 4.875.757812 1.835937 1.480469 3.710937 2.207031 5.585937 2.007812 5.609375 4.460938 11.050781 7.332031 16.273438 2.328125 3.785156 4.988281 7.355469 7.953125 10.667969 2.199219 2.460937 4.203125 5.085937 6 7.859374.824219 1.308594 1.457032 2.730469 1.875 4.222657-5.089844-2.191407-13.441406-7.015625-18.441406-9.898438-5.425781-3.132812-10.550781-6.089843-14.292969-7.777343l-1.890625-.839844c-1.496094-.667969-3.195312-1.429688-5.042968-2.28125.371093-9.5625-1.921876-19.042969-6.625-27.375 6.035156-.371094 12.003906-1.453125 17.78125-3.226563.300781.636719.589843 1.296875.894531 1.914063zm-379.484375 89.4375.566406.277344c9.203125 4.6875 18.054688 10.035156 26.484375 16.007812 51.222656 34.539062 69.300781 37.410156 132.289063 45.738281-7.941407.769531-15.640626 1.621094-22.898438 2.449219-15.621094 2.480469-31.449219 3.394531-47.25 2.726562-3.363281-.371093-7.023438-.898437-10.84375-1.492187-31.742188-13.792969-65.316406-32.398437-78.347656-65.707031zm345.53125 32.769531c39.359375 55.390625 73.351562 103.226563 55.894531 176.015625-13.675781 57.117188-74.609375 74.34375-100.574219 79.164062-6.84375 1.269532-13.691406 2.535157-20.507812 3.859376-61.578125 11.464843-124.566406 13.257812-186.695313 5.308593-106.78125-14.589843-157.664062-81.609375-163.171875-103.015625-.152344-.597656-.257812-1.109375-.335937-1.542968 5.136719.707031 10.21875 1.769531 15.210937 3.183593 10.410156 3.066407 21.15625 4.847657 32 5.300781 13.878906-.035156 27.554688-3.316406 39.941406-9.578124 6.328126 2.625 12.902344 4.613281 19.628907 5.929687-1.496094 1.382813-2.609375 3.128906-3.234375 5.0625-1.5625 6.167969 1.046875 12.636719 6.449218 15.988281 13.53125 9.292969 29.734376 13.894532 46.125 13.09375 1.261719 0 2.578126-.078125 3.875-.121094-5.191406 2.074219-8.703124 6.972657-9 12.554688.304688 4.871094 3.535157 9.074219 8.167969 10.617188 5.335938 1.886718 10.984375 2.742187 16.640625 2.515624 9.421875-.179687 18.796875-1.429687 27.9375-3.730468-1.289062 2.1875-1.738281 4.769531-1.273437 7.261718.757812 3.808594 3.75 8.632813 13.683593 9.96875 2.105469.261719 4.222657.382813 6.34375.367188 25.265626 0 80.714844-13.925781 101.058594-54.59375 1.363282-2.726562 1.167969-5.972656-.511718-8.515625-1.679688-2.546875-4.589844-4-7.632813-3.820313-3.042969.183594-5.757813 1.976563-7.121094 4.703126-14.644531 29.269531-54.652343 41.917968-77.085937 44.683593 14.449218-10.585937 27.972656-22.378906 40.425781-35.25 8.234375-8.433593 14.441406-15.398437 17.082031-18.367187l.960938-1.074219.054687-.097656c.167969-.183594.324219-.34375.46875-.519531 3.027344-3.464844 2.757813-8.707032-.605469-11.847657-3.363281-3.140625-8.609374-3.050781-11.859374.207031-.210938.207032-.515626.558594-.769532.867188l-.007812.011719-.984375 1.09375c-2.554688 2.871093-8.464844 9.507812-16.25 17.496093-22.34375 19.757813-50.5 31.730469-80.234375 34.109376 13.296875-7.71875 28.519531-17.722657 40.136718-25.585938 12.515626-6.746094 24.21875-14.898438 34.886719-24.296875.421875-.292969.820313-.613281 1.203125-.957031 3.3125-3.132813 3.582032-8.3125.609375-11.769532-2.972656-3.457031-8.136719-3.964843-11.726562-1.15625-.347657.222657-.675781.472657-.984375.742188-9.933594 8.804688-20.863282 16.421875-32.566406 22.691406-38.300782 20.28125-70.191407 15.582032-84.152344 9.339844 16.382812-3.191406 32.472656-7.734375 48.101562-13.582031 14.265625-3.40625 28.003906-8.738281 40.832032-15.84375 3.527343-1.777344 5.371093-5.746094 4.457031-9.589844-.914063-3.84375-4.34375-6.554687-8.296875-6.558594-1.621094.015625-3.207032.476563-4.589844 1.324219l-.007812-.007812c-11.335938 6.28125-23.472657 10.988281-36.078126 14-.199218.042968-.398437.085937-.597656.132812-16.308594 4.128906-33.226562 5.300781-49.949218 3.46875-10.425782-.921875-20.613282-3.625-30.121094-8-2.328125-1.113281-4.484375-2.550781-6.410156-4.269531 4.351562-.964844 8.835937-1.175781 13.257812-.625 28.714844 1.324219 57.472656-1.320313 85.46875-7.847657.613281-.121093 1.058594-.226562 1.058594-.226562l-.054688-.210938c4.144532-1.421874 6.503906-5.789062 5.414063-10.035156-1.089844-4.246094-5.257813-6.941406-9.578125-6.191406l-.023438-.09375c-27.542968 3.335938-55.4375 2.332031-82.667968-2.96875-31.132813-5.339844-42.640626-20.324219-44.371094-25.78125.890625.082031 1.777344.238281 2.644531.472656 18.113281 3.71875 36.464844 6.136719 54.925781 7.242188l.027344-.003906c13.265625 2.015624 26.695312 2.765624 40.105469 2.238281 3.101562-.027344 5.941406-1.738281 7.421875-4.464844 1.480468-2.722656 1.363281-6.039063-.304688-8.652344-1.664062-2.617187-4.621094-4.125-7.714844-3.933593-12.554687.507812-25.128906-.203126-37.546874-2.117188-43.175782-6.898438-63.675782-27.707031-72.058594-39.5-2.628906-3.617188-4.804688-7.542969-6.476563-11.691406 25.285157 10.546875 78.308594 21.742187 110.714844 26.652344 4.464844.707031 8.75 1.324218 12.589844 1.75 17.109375.882812 34.257812-.03125 51.175781-2.71875 30.378906-3.449219 68.140625-7.742188 102.242188-.9375.378906.113281.765624.207031 1.15625.273437 13.296874 2.578125 26.074218 7.328125 37.828124 14.058594 30.832032 17.433593 52.269532 47.726562 58.453126 82.601562-1.339844 10.792969-6.800782 20.644531-15.238282 27.5-2.539062 1.746094-3.941406 4.726563-3.664062 7.796875.277344 3.070313 2.1875 5.75 4.996094 7.015625 2.8125 1.265625 6.085937.917969 8.566406-.914062 12.496094-9.679688 20.585937-23.972657 22.449218-39.671875 2.632813-18.070313 2.179688-36.453125-1.332031-54.367188-4.375-25.917968-20.152343-55.140625-38.425781-88.976562-9.523438-17.648438-20.324219-37.65625-30.5-59.097656-25.648438-54.050782-9.726562-90.84375 11.71875-105.933594 19.855469-13.984375 44.214844-1.125 56.9375 7.765625l2.84375 1.988281c5.613281 3.433594 10.730469 7.613281 15.214844 12.425781-8.921875 1.992188-18.105469 2.539063-27.199219 1.621094-3.605469-.445313-7.089844 1.472656-8.640625 4.757813-1.585938 3.257812-.933594 7.164062 1.625 9.730468 5.960938 5.613282 10.179688 12.820313 12.152344 20.761719-6.105469-3.6875-11.761719-8.078125-16.851563-13.078125-12.253906-12.332031-21.820312-10.8125-26.425781-8.800781-8.511719 3.699219-13.066406 14.015625-12.5 28.257812.78125 21.980469 11.648438 40.214844 51.746094 96.554688zm0 0"/></svg>