<svg id="Capa_1" enable-background="new 0 0 511.979 511.979" height="512" viewBox="0 0 511.979 511.979" width="512" xmlns="http://www.w3.org/2000/svg"><g><path d="m440.798 416.444-23.908-17.803c-1.484-1.105-2.686-2.489-3.571-4.115l-9.09-16.675c-1.982-3.636-6.537-4.978-10.175-2.995-3.637 1.982-4.978 6.538-2.995 10.175l9.089 16.674c1.902 3.491 4.594 6.591 7.783 8.966l23.908 17.804c2.172 1.617 3.092 4.44 2.291 7.027-.835 2.695-3.292 4.506-6.113 4.506h-44.549c-1.199 0-2.325-.641-2.938-1.671l-18.285-30.768-55.551-93.474c-2.116-3.561-6.717-4.73-10.279-2.616-3.561 2.116-4.731 6.718-2.615 10.279l13.872 23.342c-39.05 4.345-88.555-3.437-136.048-21.509 9.783-30.042-3.615-61.056-18.382-83.575-2.271-3.464-6.921-4.429-10.384-2.159-3.464 2.271-4.431 6.921-2.159 10.385 19.332 29.482 24.141 55.112 14.405 76.389-.013.028-.029.053-.042.08-11.299 24.645-38.684 35.419-38.944 35.519-2.007.762-3.591 2.348-4.351 4.355l-15.003 39.617c-1.245 3.287-.04 6.997 2.897 8.926l27.518 18.068c1.128.741 1.802 1.989 1.802 3.338v1.48c0 2.202-1.792 3.994-3.994 3.994h-58.964c-2.171 0-4.113-1.372-4.834-3.413-4.894-13.866-14.027-40.012-20.218-59.331-.349-1.093-.358-2.274-.049-3.416 5.954 4.687 12.647 8.244 19.785 10.455 3.974 1.231 8.163-1.005 9.384-4.945 1.226-3.957-.988-8.158-4.944-9.383-6.925-2.145-13.314-6-18.704-11.211 1.524-5.062 2.877-10.491 3.9-15.772 1.034-5.341 1.99-11.891 2.163-18.388 8.11 5.978 16.67 11.255 25.622 15.74 3.686 1.846 8.201.375 10.064-3.346 1.855-3.703.357-8.209-3.346-10.065-13.405-6.716-25.876-15.353-37.108-25.653-3.573-7.287-9.274-15.437-17.058-24.345-5.066-5.798-8.123-13.272-8.608-21.046-1.022-16.36 3.902-32.512 13.867-45.479 1.933-2.516 4.034-4.874 6.273-7.075 2.49 13.994 8.863 28.908 19.079 44.53 3.86 5.9 8.02 11.697 12.042 17.303 10.706 14.923 20.819 29.019 26.12 45.328 1.274 3.92 5.491 6.1 9.451 4.815 3.939-1.28 6.095-5.512 4.814-9.451-6.021-18.525-17.295-34.239-28.198-49.437-3.931-5.478-7.994-11.142-11.677-16.77-10.997-16.818-17.072-32.91-17.755-46.847 6.006-3.439 12.537-5.957 19.377-7.417 4.051-.864 6.634-4.849 5.77-8.9-.865-4.052-4.85-6.631-8.9-5.77-19.126 4.081-36.363 15.029-48.29 30.549-1.601 2.083-3.088 4.237-4.474 6.447-2.014-2.808-3.086-6.035-3.622-8.228-2.311-9.45-.397-20.611 4.651-27.144 14.296-18.502 40.139-20.794 65.131-23.011 8.466-.75 16.462-1.46 23.873-2.805 32.309-5.862 53.579-23.627 56.898-47.522 2.348-16.898-5.296-33.25-18.588-39.762-3.719-1.824-8.212-.284-10.035 3.435-1.822 3.72-.284 8.213 3.436 10.035 7.431 3.641 11.775 13.831 10.33 24.229-1.145 8.239-7.794 28.127-44.719 34.827-6.739 1.223-14.405 1.902-22.521 2.623-26.891 2.385-57.368 5.088-75.674 28.78-7.772 10.055-10.728 26.081-7.354 39.878 1.95 7.976 5.798 14.479 11.081 18.927-4.228 11.007-6.106 22.878-5.358 34.846.689 11.057 5.052 21.704 12.283 29.981 9.125 10.443 15.221 19.962 17.166 26.803 3.637 12.795-3.261 40.698-8.89 52.944-2.23 4.854-2.577 10.283-.975 15.287 6.249 19.502 15.438 45.805 20.358 59.748 2.833 8.027 10.46 13.421 18.979 13.421h58.964c10.474 0 18.994-8.521 18.994-18.994v-1.48c0-6.418-3.203-12.354-8.569-15.877l-22.49-14.767 11.746-31.016c15.962-7.335 31.51-19.895 40.754-35.587 23.452 8.978 48.154 15.8 71.851 19.822 28.824 4.893 55.285 5.578 78.752 2.047l51.611 86.845c3.303 5.556 9.369 9.007 15.832 9.007h44.549c9.435 0 17.649-6.055 20.441-15.068 2.681-8.646-.397-18.089-7.658-23.495z"/><path d="m511.251 227.398-41.105-114.094c12.302-3.624 21.789-10.337 27.989-15.853 6.272-5.588 9.87-13.585 9.87-21.94v-5.63c0-7.119-5.796-12.91-12.92-12.91h-247.879c-7.119 0-12.91 5.791-12.91 12.91v5.63c0 8.361 3.595 16.358 9.87 21.947 6.204 5.51 15.693 12.221 27.984 15.844l-20.028 55.598h-143.596c-4.143 0-7.5 3.358-7.5 7.5s3.357 7.5 7.5 7.5h36.884c.378 14.343 5.244 28.302 13.879 39.245 1.48 1.876 3.676 2.854 5.893 2.854 1.627 0 3.266-.527 4.642-1.613 3.251-2.566 3.807-7.282 1.241-10.534-6.565-8.319-10.296-18.958-10.658-29.953h31.647c-.282 19.216 6.556 37.723 12.071 50.585 1.952 4.553 4.035 9.119 6.051 13.535 7.235 15.858 14.069 30.837 16.196 46.959.498 3.773 3.721 6.52 7.426 6.52.327 0 .658-.021.99-.065 4.107-.542 6.997-4.31 6.455-8.417-2.42-18.346-10.046-35.06-17.421-51.224-1.98-4.339-4.027-8.826-5.911-13.22-7.595-17.715-11.103-32.113-10.851-44.674h39.656l-15.661 43.484c-1.533 4.233-.64 8.963 2.334 12.346 2.961 3.369 7.538 4.885 11.958 3.9l11.768-2.622 2.336 21.495c.466 4.263 3.048 7.92 6.908 9.784 3.825 1.846 8.357 1.595 11.961-.676l17.015-10.742 39.174 8.84c2.694 3.758 5.383 6.501 8.089 8.25 6.403 4.137 17.475 6.205 28.548 6.205 10.681 0 24.663-1.743 32.275-9.264-3.918 10.757-9.045 20.328-15.33 28.698-10.283-2.105-20.209-5.516-29.564-10.165-3.711-1.845-8.212-.331-10.055 3.379s-.33 8.21 3.379 10.054c7.953 3.952 16.276 7.09 24.854 9.417-3.361 3.123-6.941 6.011-10.757 8.642-3.16 2.179-4.165 6.393-2.327 9.764l10.41 19.1c1.36 2.497 3.935 3.912 6.592 3.912 1.213 0 2.442-.295 3.582-.916 3.638-1.982 4.979-6.538 2.996-10.175l-7.275-13.35c21.694-16.98 35.132-41.362 41.782-66.693l25.25-5.698 17.019 10.745c3.634 2.29 8.101 2.534 11.957.673 3.86-1.864 6.442-5.521 6.908-9.788l2.336-21.493 11.769 2.624c4.398.978 8.974-.513 11.95-3.891 2.046-2.321 3.112-5.281 3.083-8.281-.014-1.361-.253-2.734-.729-4.058zm-18.247-151.887c0 4.081-1.768 7.995-4.844 10.736-5.118 4.553-13.005 10.114-23.116 12.9l-7.893-21.908c-.67-1.859-1.528-3.612-2.516-5.269h38.368v3.541zm-155.349-3.54h25.991v10.237h-13.532c-4.143 0-7.5 3.358-7.5 7.5s3.357 7.5 7.5 7.5h13.532v5.207c0 4.142 3.357 7.5 7.5 7.5s7.5-3.358 7.5-7.5v-5.207h13.533c4.143 0 7.5-3.358 7.5-7.5s-3.357-7.5-7.5-7.5h-13.533v-10.237h49.669c6.576 0 12.494 4.16 14.725 10.352l21.923 60.849-22.117 11.974c-3.643 1.972-4.997 6.523-3.025 10.166 1.358 2.508 3.938 3.931 6.603 3.931 1.205 0 2.429-.292 3.563-.906l20.118-10.892 4.031 11.188-37.197 20.134c-7.092-7.704-17.732-12.986-29.848-14.094-.278-.734-.593-1.364-.894-1.872-.583-.983-1.299-1.881-2.121-2.704l-9.339-43.191c-.876-4.048-4.859-6.623-8.916-5.746-4.049.875-6.621 4.867-5.746 8.916l7.067 32.685c-6.15-1.126-12.237-1.344-15.995-1.344-3.756 0-9.841.218-15.989 1.344l7.068-32.683c.876-4.049-1.696-8.041-5.745-8.916-4.054-.877-8.04 1.698-8.915 5.745l-9.339 43.186c-.825.824-1.544 1.724-2.128 2.71-.301.508-.616 1.138-.894 1.871-12.116 1.108-22.756 6.392-29.846 14.097l-37.196-20.133 4.031-11.19 20.115 10.89c1.135.615 2.357.906 3.563.906 2.665 0 5.245-1.423 6.603-3.931 1.972-3.643.617-8.194-3.025-10.166l-22.114-11.972 21.92-60.852c2.229-6.191 8.146-10.351 14.723-10.351h23.676zm75.305 159.449c-.249.06-.493.135-.734.219-3.088.86-6.423 1.33-9.901 1.33-9.102 0-17.489-3.21-23.012-8.808-2.17-2.198-5.07-3.409-8.168-3.409s-5.998 1.211-8.169 3.41c-5.521 5.597-13.909 8.807-23.011 8.807-3.465 0-6.788-.467-9.866-1.321-.264-.094-.533-.177-.807-.241-10.576-3.215-18.067-11.054-18.067-20.198 0-12.682 13.762-21.054 26.831-21.706 6.507 9.392 22.055 19.912 33.09 19.912 11.036 0 26.584-10.52 33.091-19.912 13.194.66 26.838 9.12 26.838 21.706 0 9.156-7.513 17.003-18.115 20.211zm-20.384-51.408c-2.356 4.921-15.288 14.403-21.43 14.403s-19.073-9.482-21.429-14.403c2.631-1.511 10.103-3.597 21.429-3.597 11.327 0 18.799 2.086 21.43 3.597zm-138.442-93.762c-3.075-2.739-4.839-6.653-4.839-10.739v-3.54h38.36c-.988 1.657-1.845 3.409-2.515 5.269l-7.891 21.906c-10.102-2.788-17.995-8.348-23.115-12.896zm41.472 159.304c-1.939-.44-3.974-.087-5.654.974l-16.049 10.132-2.352-21.637c-.382-3.54-2.451-6.687-5.54-8.438-2.368-1.343-5.172-1.772-7.857-1.175l-11.356 2.53 16.221-45.03 34.701 18.783c-.97 3.038-1.495 6.227-1.495 9.518 0 14.836 10.519 27.639 25.612 33.441 1.047 2.665 2.089 5.171 3.127 7.528zm95.949 19.806c-7.822 5.052-33 5.051-40.818.001-.788-.509-2.634-2.042-5.369-6.323l-.007-.011c-1.642-2.571-3.606-6.143-5.852-11.067.153.001.303.01.457.01 11.829 0 22.998-3.952 31.18-10.938 8.183 6.987 19.351 10.938 31.18 10.938.156 0 .31-.009.466-.01-2.056 4.502-7.076 14.709-11.237 17.4zm92.579-39.953c-6.346-1.408-12.678 2.983-13.396 9.612l-2.352 21.641-16.049-10.132c-1.682-1.062-3.715-1.415-5.654-.974l-29.349 6.623c1.038-2.357 2.08-4.863 3.128-7.528 15.094-5.803 25.612-18.604 25.612-33.438 0-3.293-.526-6.483-1.497-9.522l34.697-18.781 16.228 45.034z"/><path d="m303.876 131.105v4.737c0 4.142 3.357 7.5 7.5 7.5s7.5-3.358 7.5-7.5v-4.737c0-4.142-3.357-7.5-7.5-7.5s-7.5 3.358-7.5 7.5z"/><path d="m430.918 143.342c4.143 0 7.5-3.358 7.5-7.5v-4.737c0-4.142-3.357-7.5-7.5-7.5s-7.5 3.358-7.5 7.5v4.737c0 4.142 3.357 7.5 7.5 7.5z"/></g></svg>